<svg width="173" height="183" viewBox="0 0 173 183" fill="none" xmlns="http://www.w3.org/2000/svg">
<rect width="1440" height="9062" transform="translate(-1105 -5217)" fill="white"/>
<path fill-rule="evenodd" clip-rule="evenodd" d="M13.8704 22L11.4012 28.7634H45.6179L48.087 22H13.8704ZM10.1659 32.1436L7.69677 38.9055H41.9134L44.3825 32.1436H10.1659ZM6.46913 42.2872L4 49.0491H38.2166L40.6842 42.2872H6.46913Z" fill="#009FDF"/>
<mask id="mask0_1_12" style="mask-type:alpha" maskUnits="userSpaceOnUse" x="55" y="32" width="94" height="42">
<path d="M55.3359 73.7042H149V32.2739H55.3359V73.7042Z" fill="white"/>
</mask>
<g mask="url(#mask0_1_12)">
<path fill-rule="evenodd" clip-rule="evenodd" d="M76.7425 51.6268V51.7695C78.3062 52.3434 79.7999 53.3471 80.5825 53.9916C83.0004 55.9989 84.0678 58.6506 84.0678 62.0912C84.0678 67.7555 81.0804 71.8406 76.173 73.1312C74.6793 73.5609 73.1156 73.7051 70.1982 73.7051H55.3359V32.2739H68.4929C71.1956 32.2739 73.044 32.4166 74.6793 32.8463C79.4451 34.1369 82.5741 37.4348 82.5741 42.6662C82.5741 45.4623 81.5783 47.8287 79.943 49.4047C79.232 50.1213 78.2362 50.9823 76.7425 51.6268ZM63.5855 55.9989V66.8945H69.2755C70.9809 66.8945 72.5461 66.7518 73.6851 65.6761C74.8225 64.6003 75.3204 63.2391 75.3204 61.4467C75.3204 60.0855 74.964 58.7949 74.253 57.8634C73.044 56.358 71.5503 55.9989 68.9908 55.9989H63.5855ZM63.5139 48.8307H68.1366C69.5587 48.8307 70.2698 48.8307 70.9809 48.6159C72.9024 48.0419 74.1114 46.3232 74.1114 43.9568C74.1114 41.1623 72.8309 39.9423 70.9809 39.3699C70.1982 39.1551 69.4171 39.0829 67.8519 39.0829H63.5139V48.8307ZM96.4422 73.7051V39.2256H84.5657V32.2739H117.566L115.219 39.2256H104.692V73.7051H96.4422ZM120.125 73.7051V32.2739H146.867L144.521 39.2256H128.305V48.401H134.919C140.253 48.401 143.027 49.6917 144.947 51.3398C146.441 52.6304 149 55.497 149 61.1613C149 66.7518 146.369 69.8333 144.164 71.4109C141.605 73.2017 138.902 73.7051 133.425 73.7051H120.125ZM128.305 66.7518H134.493C136.839 66.7518 138.261 66.1779 139.257 64.8873C139.755 64.2428 140.466 63.0948 140.466 60.9449C140.466 58.7949 139.755 57.2895 138.333 56.2137C137.48 55.5692 136.341 55.2116 134.421 55.2116H128.305V66.7518Z" fill="#0A2973"/>
</g>
<path d="M54.79 145.96C56.0167 145.96 56.9833 146.093 57.69 146.36C58.41 146.613 58.9167 147.04 59.21 147.64C59.5167 148.24 59.67 149.053 59.67 150.08C59.67 151.253 59.49 152.133 59.13 152.72C58.77 153.307 58.2233 153.7 57.49 153.9C56.77 154.087 55.8567 154.18 54.75 154.18C53.8433 154.18 53.01 154.167 52.25 154.14C51.49 154.113 50.6967 154.067 49.87 154H49.81V140.2C50.5833 140.16 51.3433 140.127 52.09 140.1C52.85 140.073 53.5967 140.06 54.33 140.06C55.1033 140.06 55.8633 140.073 56.61 140.1C57.37 140.127 58.1233 140.16 58.87 140.2L58.65 142.14H52.31V145.96H54.79ZM54.79 147.7H52.31V152.22C53.03 152.22 53.8567 152.22 54.79 152.22C55.43 152.22 55.9167 152.16 56.25 152.04C56.5967 151.92 56.83 151.7 56.95 151.38C57.0833 151.06 57.15 150.593 57.15 149.98C57.15 149.407 57.09 148.953 56.97 148.62C56.85 148.287 56.6167 148.053 56.27 147.92C55.9367 147.773 55.4433 147.7 54.79 147.7ZM66.8556 143.94C68.029 143.94 68.9223 144.187 69.5356 144.68C70.1623 145.16 70.4756 146.047 70.4756 147.34V154H68.5556L68.2956 152.4C68.0556 152.68 67.749 152.96 67.3756 153.24C67.0023 153.507 66.569 153.733 66.0756 153.92C65.5956 154.107 65.0556 154.2 64.4556 154.2C63.5623 154.2 62.829 153.967 62.2556 153.5C61.6823 153.033 61.3956 152.353 61.3956 151.46V150.42C61.3956 149.647 61.649 149.047 62.1556 148.62C62.6623 148.18 63.369 147.96 64.2756 147.96H68.0556V147.32C68.0423 146.8 67.9156 146.427 67.6756 146.2C67.4356 145.96 66.9823 145.84 66.3156 145.84C65.7956 145.84 65.149 145.86 64.3756 145.9C63.6156 145.94 62.849 145.993 62.0756 146.06L61.8556 144.4C62.3223 144.32 62.849 144.247 63.4356 144.18C64.0223 144.1 64.6156 144.04 65.2156 144C65.8156 143.96 66.3623 143.94 66.8556 143.94ZM63.7956 151.14C63.7956 151.94 64.2356 152.347 65.1156 152.36C65.5423 152.36 66.0156 152.26 66.5356 152.06C67.069 151.86 67.5756 151.567 68.0556 151.18V149.46H64.9356C64.5223 149.473 64.229 149.58 64.0556 149.78C63.8823 149.98 63.7956 150.253 63.7956 150.6V151.14ZM75.5847 144.18V147.96H79.9447V144.18H82.3247V154H79.9447V149.66H75.5847V154H73.1847V144.18H75.5847ZM87.4992 144.18V146.88C87.4992 147.28 87.4592 147.673 87.3792 148.06H88.4192C88.9926 148.06 89.4459 147.933 89.7792 147.68C90.1126 147.427 90.3992 147.02 90.6392 146.46C90.8792 145.887 91.1526 145.127 91.4592 144.18H93.9392C93.6459 145.033 93.3859 145.747 93.1592 146.32C92.9459 146.88 92.7192 147.34 92.4792 147.7C92.2526 148.047 91.9659 148.313 91.6192 148.5C91.2859 148.673 90.8526 148.793 90.3192 148.86V148.94C90.8792 148.993 91.3392 149.113 91.6992 149.3C92.0592 149.473 92.3659 149.747 92.6192 150.12C92.8859 150.48 93.1392 150.973 93.3792 151.6C93.6192 152.227 93.9059 153.027 94.2392 154H91.6992C91.4059 153.133 91.1526 152.427 90.9392 151.88C90.7259 151.32 90.5126 150.887 90.2992 150.58C90.0859 150.273 89.8326 150.06 89.5392 149.94C89.2459 149.82 88.8792 149.76 88.4392 149.76H87.3992C87.4659 150.093 87.4992 150.393 87.4992 150.66V154H85.0792V144.18H87.4992ZM105.608 140.04C106.782 140.04 107.715 140.147 108.408 140.36C109.115 140.56 109.622 140.92 109.928 141.44C110.235 141.96 110.388 142.693 110.388 143.64C110.388 144.627 110.202 145.38 109.828 145.9C109.455 146.42 108.848 146.72 108.008 146.8V146.88C109.048 146.973 109.775 147.333 110.188 147.96C110.615 148.587 110.828 149.453 110.828 150.56C110.828 151.507 110.668 152.24 110.348 152.76C110.042 153.28 109.548 153.647 108.868 153.86C108.202 154.06 107.328 154.16 106.248 154.16C105.408 154.16 104.675 154.153 104.048 154.14C103.435 154.14 102.862 154.127 102.328 154.1C101.808 154.073 101.268 154.04 100.708 154V140.2C101.202 140.147 101.682 140.113 102.148 140.1C102.628 140.073 103.142 140.06 103.688 140.06C104.235 140.047 104.875 140.04 105.608 140.04ZM105.488 141.96C105.035 141.96 104.615 141.96 104.228 141.96C103.842 141.96 103.482 141.96 103.148 141.96V146H105.708C106.562 146 107.155 145.867 107.488 145.6C107.822 145.32 107.988 144.773 107.988 143.96C107.988 143.413 107.908 143 107.748 142.72C107.602 142.427 107.342 142.227 106.968 142.12C106.608 142.013 106.115 141.96 105.488 141.96ZM105.728 147.7H103.148V152.24C103.922 152.24 104.815 152.24 105.828 152.24C106.455 152.24 106.948 152.187 107.308 152.08C107.668 151.96 107.922 151.747 108.068 151.44C108.228 151.133 108.308 150.687 108.308 150.1C108.308 149.46 108.228 148.973 108.068 148.64C107.908 148.293 107.642 148.053 107.268 147.92C106.895 147.773 106.382 147.7 105.728 147.7ZM123.089 140.2V142.24H118.809V154H116.309V142.24H112.029V140.2H123.089ZM130.024 145.96C131.251 145.96 132.218 146.093 132.924 146.36C133.644 146.613 134.151 147.04 134.444 147.64C134.751 148.24 134.904 149.053 134.904 150.08C134.904 151.253 134.724 152.133 134.364 152.72C134.004 153.307 133.458 153.7 132.724 153.9C132.004 154.087 131.091 154.18 129.984 154.18C129.078 154.18 128.244 154.167 127.484 154.14C126.724 154.113 125.931 154.067 125.104 154H125.044V140.2C125.818 140.16 126.578 140.127 127.324 140.1C128.084 140.073 128.831 140.06 129.564 140.06C130.338 140.06 131.098 140.073 131.844 140.1C132.604 140.127 133.358 140.16 134.104 140.2L133.884 142.14H127.544V145.96H130.024ZM130.024 147.7H127.544V152.22C128.264 152.22 129.091 152.22 130.024 152.22C130.664 152.22 131.151 152.16 131.484 152.04C131.831 151.92 132.064 151.7 132.184 151.38C132.318 151.06 132.384 150.593 132.384 149.98C132.384 149.407 132.324 148.953 132.204 148.62C132.084 148.287 131.851 148.053 131.504 147.92C131.171 147.773 130.678 147.7 130.024 147.7Z" fill="#363738"/>
<path d="M31.9416 178.464H31.2836V183H30.1216V173.2H31.2836V177.764L31.9136 177.568L35.2036 173.2H36.5476L33.2716 177.414L32.6836 177.876L33.3976 178.436L36.9816 183H35.5116L31.9416 178.464ZM37.2465 179.5C37.2465 178.315 37.5079 177.409 38.0305 176.784C38.5625 176.149 39.3232 175.832 40.3125 175.832C40.8352 175.832 41.2879 175.921 41.6705 176.098C42.0625 176.266 42.3845 176.513 42.6365 176.84C42.8885 177.157 43.0752 177.545 43.1965 178.002C43.3179 178.45 43.3785 178.949 43.3785 179.5C43.3785 180.685 43.1125 181.595 42.5805 182.23C42.0579 182.855 41.3019 183.168 40.3125 183.168C39.7899 183.168 39.3325 183.084 38.9405 182.916C38.5579 182.739 38.2405 182.491 37.9885 182.174C37.7365 181.847 37.5499 181.46 37.4285 181.012C37.3072 180.555 37.2465 180.051 37.2465 179.5ZM38.4085 179.5C38.4085 179.855 38.4412 180.195 38.5065 180.522C38.5812 180.849 38.6932 181.133 38.8425 181.376C38.9919 181.619 39.1879 181.815 39.4305 181.964C39.6732 182.113 39.9672 182.188 40.3125 182.188C41.5819 182.197 42.2165 181.301 42.2165 179.5C42.2165 179.136 42.1792 178.791 42.1045 178.464C42.0392 178.137 41.9319 177.853 41.7825 177.61C41.6332 177.367 41.4372 177.176 41.1945 177.036C40.9519 176.887 40.6579 176.812 40.3125 176.812C39.0432 176.803 38.4085 177.699 38.4085 179.5ZM50.9264 178.842L51.0104 177.512H50.9404L50.4364 178.59L48.7424 181.334H48.3504L46.5864 178.59L46.1244 177.512H46.0684L46.1804 178.828V183H45.1444V176H46.2504L48.2104 179.136L48.6164 179.948H48.6444L49.0644 179.108L50.8984 176H52.0184V183H50.9264V178.842ZM59.9498 178.842L60.0338 177.512H59.9638L59.4598 178.59L57.7658 181.334H57.3738L55.6098 178.59L55.1478 177.512H55.0918L55.2038 178.828V183H54.1678V176H55.2738L57.2338 179.136L57.6398 179.948H57.6678L58.0878 179.108L59.9218 176H61.0418V183H59.9498V178.842ZM68.3013 182.44C68.0213 182.664 67.6666 182.841 67.2373 182.972C66.8173 183.103 66.3693 183.168 65.8933 183.168C65.3613 183.168 64.8993 183.084 64.5073 182.916C64.1153 182.739 63.7933 182.491 63.5413 182.174C63.2893 181.847 63.1026 181.46 62.9813 181.012C62.8599 180.564 62.7993 180.06 62.7993 179.5C62.7993 178.305 63.0653 177.395 63.5973 176.77C64.1293 176.145 64.8899 175.832 65.8793 175.832C66.1966 175.832 66.5139 175.869 66.8313 175.944C67.1486 176.009 67.4333 176.14 67.6853 176.336C67.9373 176.532 68.1426 176.812 68.3013 177.176C68.4599 177.531 68.5393 178.002 68.5393 178.59C68.5393 178.898 68.5113 179.239 68.4553 179.612H63.9613C63.9613 180.023 64.0033 180.387 64.0873 180.704C64.1713 181.021 64.3019 181.292 64.4793 181.516C64.6566 181.731 64.8853 181.899 65.1653 182.02C65.4546 182.132 65.8046 182.188 66.2153 182.188C66.5326 182.188 66.8499 182.132 67.1673 182.02C67.4846 181.908 67.7226 181.777 67.8813 181.628L68.3013 182.44ZM65.8933 176.812C65.3426 176.812 64.8993 176.957 64.5633 177.246C64.2366 177.535 64.0406 178.03 63.9753 178.73H67.4473C67.4473 178.021 67.3119 177.526 67.0413 177.246C66.7706 176.957 66.3879 176.812 65.8933 176.812ZM70.3007 176H71.0707L71.2807 176.84H71.3367C71.5513 176.513 71.8267 176.266 72.1627 176.098C72.508 175.921 72.9 175.832 73.3387 175.832C74.272 175.832 74.9673 176.107 75.4247 176.658C75.882 177.209 76.1107 178.109 76.1107 179.36C76.1107 179.948 76.0313 180.48 75.8727 180.956C75.7233 181.423 75.5087 181.819 75.2287 182.146C74.9487 182.473 74.608 182.725 74.2067 182.902C73.8147 183.079 73.376 183.168 72.8907 183.168C72.5453 183.168 72.27 183.145 72.0647 183.098C71.8687 183.061 71.654 182.991 71.4207 182.888V185.8H70.3007V176ZM73.1287 176.812C72.6527 176.812 72.2747 176.938 71.9947 177.19C71.724 177.433 71.5327 177.806 71.4207 178.31V181.782C71.5887 181.913 71.78 182.015 71.9947 182.09C72.2093 182.155 72.494 182.188 72.8487 182.188C73.4927 182.188 74.0013 181.95 74.3747 181.474C74.7573 180.989 74.9487 180.279 74.9487 179.346C74.9487 178.963 74.916 178.618 74.8507 178.31C74.7853 177.993 74.678 177.727 74.5287 177.512C74.3887 177.288 74.202 177.115 73.9687 176.994C73.7447 176.873 73.4647 176.812 73.1287 176.812ZM78.6029 176V177.904C78.6029 178.156 78.6169 178.385 78.6449 178.59C78.6729 178.786 78.7289 178.959 78.8129 179.108C78.8969 179.248 79.0182 179.36 79.1769 179.444C79.3355 179.519 79.5455 179.556 79.8069 179.556C80.2269 179.556 80.5722 179.509 80.8429 179.416C81.1135 179.323 81.3189 179.22 81.4589 179.108V176H82.5789V183H81.4589V180.06C81.3095 180.153 81.0855 180.256 80.7869 180.368C80.4975 180.48 80.0962 180.536 79.5829 180.536C79.2375 180.536 78.9342 180.499 78.6729 180.424C78.4115 180.349 78.1922 180.219 78.0149 180.032C77.8375 179.845 77.7022 179.598 77.6089 179.29C77.5249 178.982 77.4829 178.595 77.4829 178.128V176H78.6029ZM89.8482 182.44C89.5682 182.664 89.2135 182.841 88.7842 182.972C88.3642 183.103 87.9162 183.168 87.4402 183.168C86.9082 183.168 86.4462 183.084 86.0542 182.916C85.6622 182.739 85.3402 182.491 85.0882 182.174C84.8362 181.847 84.6495 181.46 84.5282 181.012C84.4068 180.564 84.3462 180.06 84.3462 179.5C84.3462 178.305 84.6122 177.395 85.1442 176.77C85.6762 176.145 86.4368 175.832 87.4262 175.832C87.7435 175.832 88.0608 175.869 88.3782 175.944C88.6955 176.009 88.9802 176.14 89.2322 176.336C89.4842 176.532 89.6895 176.812 89.8482 177.176C90.0068 177.531 90.0862 178.002 90.0862 178.59C90.0862 178.898 90.0582 179.239 90.0022 179.612H85.5082C85.5082 180.023 85.5502 180.387 85.6342 180.704C85.7182 181.021 85.8488 181.292 86.0262 181.516C86.2035 181.731 86.4322 181.899 86.7122 182.02C87.0015 182.132 87.3515 182.188 87.7622 182.188C88.0795 182.188 88.3968 182.132 88.7142 182.02C89.0315 181.908 89.2695 181.777 89.4282 181.628L89.8482 182.44ZM87.4402 176.812C86.8895 176.812 86.4462 176.957 86.1102 177.246C85.7835 177.535 85.5875 178.03 85.5222 178.73H88.9942C88.9942 178.021 88.8588 177.526 88.5882 177.246C88.3175 176.957 87.9348 176.812 87.4402 176.812ZM96.4711 182.538C96.1911 182.743 95.8598 182.897 95.4771 183C95.0945 183.112 94.6931 183.168 94.2731 183.168C93.7318 183.168 93.2745 183.084 92.9011 182.916C92.5278 182.739 92.2198 182.491 91.9771 182.174C91.7438 181.847 91.5711 181.46 91.4591 181.012C91.3565 180.555 91.3051 180.051 91.3051 179.5C91.3051 178.315 91.5665 177.409 92.0891 176.784C92.6118 176.149 93.3631 175.832 94.3431 175.832C94.7911 175.832 95.1691 175.869 95.4771 175.944C95.7945 176.009 96.0791 176.107 96.3311 176.238L96.0091 177.204C95.7945 177.083 95.5565 176.989 95.2951 176.924C95.0338 176.849 94.7538 176.812 94.4551 176.812C93.1298 176.812 92.4671 177.708 92.4671 179.5C92.4671 179.855 92.4998 180.195 92.5651 180.522C92.6398 180.839 92.7565 181.124 92.9151 181.376C93.0831 181.619 93.2978 181.815 93.5591 181.964C93.8298 182.113 94.1611 182.188 94.5531 182.188C94.8891 182.188 95.1878 182.137 95.4491 182.034C95.7198 181.931 95.9391 181.815 96.1071 181.684L96.4711 182.538ZM99.7775 179.85H99.1335V183H98.0135V176H99.1335V179.164L99.7355 178.968L101.976 176H103.194L101.024 178.814L100.436 179.276L101.164 179.836L103.502 183H102.116L99.7775 179.85ZM109.067 178.856L109.109 177.988H109.067L108.493 178.884L105.343 183H104.699V176H105.819V180.27L105.777 181.096H105.833L106.379 180.228L109.529 176H110.187V183H109.067V178.856ZM116.71 178.856L116.752 177.988H116.71L116.136 178.884L112.986 183H112.342V176H113.462V180.27L113.42 181.096H113.476L114.022 180.228L117.172 176H117.83V183H116.71V178.856ZM113.952 173.172C114.045 173.601 114.204 173.9 114.428 174.068C114.661 174.236 114.927 174.32 115.226 174.32C115.524 174.32 115.79 174.231 116.024 174.054C116.257 173.877 116.416 173.587 116.5 173.186L117.34 173.452C117.256 173.993 117.013 174.409 116.612 174.698C116.22 174.987 115.748 175.132 115.198 175.132C114.946 175.132 114.694 175.099 114.442 175.034C114.199 174.969 113.98 174.871 113.784 174.74C113.588 174.609 113.42 174.441 113.28 174.236C113.14 174.031 113.046 173.788 113 173.508L113.952 173.172ZM124.361 177.246C124.669 176.798 125.009 176.485 125.383 176.308C125.756 176.121 126.223 176.028 126.783 176.028C127.641 176.028 128.299 176.308 128.757 176.868C129.223 177.428 129.457 178.254 129.457 179.346C129.457 180.606 129.186 181.558 128.645 182.202C128.113 182.846 127.366 183.168 126.405 183.168C125.378 183.168 124.608 182.813 124.095 182.104C123.581 181.395 123.325 180.279 123.325 178.758C123.325 177.955 123.362 177.269 123.437 176.7C123.521 176.131 123.637 175.65 123.787 175.258C123.945 174.866 124.132 174.553 124.347 174.32C124.571 174.087 124.818 173.905 125.089 173.774C125.369 173.634 125.672 173.536 125.999 173.48C126.325 173.424 126.675 173.377 127.049 173.34C127.534 173.293 127.912 173.242 128.183 173.186C128.463 173.121 128.687 173.009 128.855 172.85L128.981 173.858C128.887 173.942 128.785 174.012 128.673 174.068C128.561 174.124 128.425 174.171 128.267 174.208C128.108 174.245 127.917 174.278 127.693 174.306C127.478 174.334 127.226 174.357 126.937 174.376C126.535 174.404 126.181 174.455 125.873 174.53C125.574 174.595 125.313 174.731 125.089 174.936C124.874 175.132 124.701 175.417 124.571 175.79C124.449 176.154 124.365 176.639 124.319 177.246H124.361ZM124.487 179.514C124.487 179.869 124.524 180.209 124.599 180.536C124.673 180.863 124.785 181.152 124.935 181.404C125.093 181.647 125.294 181.838 125.537 181.978C125.779 182.118 126.064 182.188 126.391 182.188C127.035 182.188 127.511 181.959 127.819 181.502C128.136 181.035 128.295 180.349 128.295 179.444C128.295 179.089 128.262 178.763 128.197 178.464C128.131 178.165 128.029 177.909 127.889 177.694C127.749 177.47 127.571 177.302 127.357 177.19C127.142 177.069 126.885 177.008 126.587 177.008C125.859 176.999 125.327 177.213 124.991 177.652C124.655 178.081 124.487 178.702 124.487 179.514ZM131.111 176.518C131.465 176.303 131.876 176.145 132.343 176.042C132.819 175.939 133.313 175.888 133.827 175.888C134.312 175.888 134.699 175.953 134.989 176.084C135.287 176.215 135.511 176.387 135.661 176.602C135.819 176.807 135.922 177.036 135.969 177.288C136.025 177.54 136.053 177.792 136.053 178.044C136.053 178.604 136.039 179.15 136.011 179.682C135.983 180.214 135.969 180.718 135.969 181.194C135.969 181.539 135.983 181.866 136.011 182.174C136.039 182.482 136.09 182.767 136.165 183.028H135.339L135.045 182.048H134.975C134.891 182.179 134.783 182.309 134.653 182.44C134.531 182.561 134.382 182.673 134.205 182.776C134.027 182.869 133.822 182.949 133.589 183.014C133.355 183.079 133.089 183.112 132.791 183.112C132.492 183.112 132.212 183.065 131.951 182.972C131.699 182.879 131.479 182.748 131.293 182.58C131.106 182.403 130.957 182.193 130.845 181.95C130.742 181.707 130.691 181.432 130.691 181.124C130.691 180.713 130.775 180.373 130.943 180.102C131.111 179.822 131.344 179.603 131.643 179.444C131.951 179.276 132.315 179.159 132.735 179.094C133.164 179.019 133.635 178.982 134.149 178.982C134.279 178.982 134.405 178.982 134.527 178.982C134.657 178.982 134.788 178.991 134.919 179.01C134.947 178.73 134.961 178.478 134.961 178.254C134.961 177.741 134.858 177.381 134.653 177.176C134.447 176.971 134.074 176.868 133.533 176.868C133.374 176.868 133.201 176.882 133.015 176.91C132.837 176.929 132.651 176.961 132.455 177.008C132.268 177.045 132.086 177.097 131.909 177.162C131.741 177.218 131.591 177.283 131.461 177.358L131.111 176.518ZM133.099 182.132C133.36 182.132 133.593 182.099 133.799 182.034C134.004 181.959 134.181 181.871 134.331 181.768C134.48 181.656 134.601 181.535 134.695 181.404C134.797 181.273 134.872 181.147 134.919 181.026V179.864C134.788 179.855 134.653 179.85 134.513 179.85C134.382 179.841 134.251 179.836 134.121 179.836C133.831 179.836 133.547 179.855 133.267 179.892C132.996 179.92 132.753 179.981 132.539 180.074C132.333 180.158 132.165 180.279 132.035 180.438C131.913 180.587 131.853 180.779 131.853 181.012C131.853 181.339 131.969 181.609 132.203 181.824C132.436 182.029 132.735 182.132 133.099 182.132ZM142.452 179.906H139.288V183H138.168V176H139.288V178.926H142.452V176H143.572V183H142.452V179.906ZM147.492 179.85H146.848V183H145.728V176H146.848V179.164L147.45 178.968L149.69 176H150.908L148.738 178.814L148.15 179.276L148.878 179.836L151.216 183H149.83L147.492 179.85Z" fill="#6B6B6C"/>
</svg>
