<svg width="220" height="181" viewBox="0 0 184 181" fill="none" xmlns="http://www.w3.org/2000/svg">
<path d="M63.2565 47.0737H72.7611V50.1793H68.2397V71.9999H63.2565V47.0737Z" fill="#0079C2"/>
<path d="M78.3962 62.6424L79.2502 50.1793H79.5362L80.3903 62.6424H78.3962ZM72.8777 71.9999H77.7567L78.2184 65.3802H80.568L81.0318 71.9999H85.9088L83.3099 47.0737H75.4765L72.8777 71.9999Z" fill="#0079C2"/>
<path d="M93.0454 63.2758V67.975C93.0454 68.6083 93.5358 68.7922 93.8218 68.7922C94.2917 68.7922 94.6186 68.404 94.6186 67.975V62.1725C94.6186 61.3961 94.4756 60.538 92.6164 60.538H90.5936V57.8002H92.6981C94.1078 57.8002 94.6186 57.4733 94.6186 55.9409V50.9965C94.6186 50.5675 94.2917 50.1793 93.8218 50.1793C93.5358 50.1793 93.0454 50.3428 93.0454 50.9965V55.0624H88.0602V51.5278C88.0602 49.7911 88.2645 47.0737 91.7582 47.0737H95.8854C99.3791 47.0737 99.6039 49.7911 99.6039 51.5278V55.5119C99.6039 58.2292 97.7037 58.9647 96.2123 58.9035V59.1486C99.563 59.0669 99.6039 61.6413 99.6039 62.5198V67.5459C99.6039 69.303 99.3791 71.9999 95.8854 71.9999H91.7582C88.2645 71.9999 88.0602 69.303 88.0602 67.5459V63.2758H93.0454Z" fill="#0079C2"/>
<path d="M102.873 47.0737H114.417V71.9999H109.431V50.1793H107.858V71.9999H102.873V47.0737Z" fill="#0079C2"/>
<path d="M122.671 60.7831V50.1793H123.325C123.856 50.1793 124.244 50.6288 124.244 51.4256V59.5368C124.244 60.3337 123.856 60.7831 123.325 60.7831H122.671ZM117.686 71.9999H122.671V63.5209H125.531C129.005 63.5209 129.229 60.824 129.229 59.0669V51.5278C129.229 49.7911 129.005 47.0737 125.531 47.0737H117.686V71.9999Z" fill="#0079C2"/>
<path d="M139.057 67.975C139.057 68.404 138.73 68.7922 138.26 68.7922C137.974 68.7922 137.484 68.6083 137.484 67.975V50.9965C137.484 50.3428 137.974 50.1793 138.26 50.1793C138.73 50.1793 139.057 50.5675 139.057 50.9965V67.975ZM132.498 67.5459C132.498 69.303 132.723 71.9999 136.196 71.9999H140.344C143.817 71.9999 144.042 69.303 144.042 67.5459V51.5278C144.042 49.7911 143.817 47.0737 140.344 47.0737H136.196C132.723 47.0737 132.498 49.7911 132.498 51.5278V67.5459Z" fill="#0079C2"/>
<path d="M160.264 47.0737H166.761V71.9999H161.776V56.37H161.592L159.018 71.9999H155.034L152.48 56.37H152.296V71.9999H147.311V47.0737H153.787L157.036 64.6038L160.264 47.0737Z" fill="#0079C2"/>
<path d="M56.7964 12.9943C55.2702 6.31327 51.4455 0.878547 50.9183 0C50.0847 1.24631 47.0343 6.04766 45.4836 11.3598C43.7899 17.3053 43.5406 22.5766 44.1249 27.7457C44.7052 32.9352 46.8975 38.2678 46.8975 38.2678C48.062 41.0465 49.8069 44.0499 50.9429 45.5209C52.608 43.3552 56.4348 36.8989 57.628 28.4812C58.292 23.782 58.3206 19.6753 56.7964 12.9943ZM50.9183 43.8456C50.1685 42.4358 49.0039 39.7593 48.8936 35.5913C48.865 31.5868 50.4729 28.1339 50.9429 27.4188C51.3617 28.1339 52.7469 31.1373 52.9124 35.244C53.0248 39.2485 51.6927 42.4154 50.9183 43.8456ZM56.3531 24.3337C56.2959 26.8876 55.9914 29.5845 55.6032 31.1986C55.7422 28.42 55.4091 24.5176 54.7717 21.4529C54.1342 18.4086 52.3301 13.3008 50.8897 10.9512C49.5597 13.1986 47.9211 17.6118 47.063 21.4324C46.2008 25.2531 46.1762 29.891 46.1762 31.2803C45.9474 30.1157 45.3753 25.9273 45.5367 21.7389C45.6716 18.286 46.4807 14.7105 46.924 13.076C48.6157 7.62088 50.5301 4.12712 50.8897 3.57547C51.2493 4.12712 53.6602 8.43812 54.9106 12.9534C56.1549 17.4688 56.4062 21.8002 56.3531 24.3337Z" fill="#0079C2"/>
<path d="M53.5067 47.0738H41.9037V54.8581C41.9139 54.8581 41.9221 54.8377 41.9323 54.8377C44.666 52.0999 49.0996 52.0999 51.8354 54.8377C54.5691 57.5551 54.5691 61.9887 51.8354 64.7265C51.8231 64.7469 51.8109 64.7469 51.7986 64.7673C51.7843 64.7673 51.77 64.7878 51.7577 64.8082C49.0302 67.5051 45.4669 68.8536 41.9037 68.8536C38.3242 68.8536 34.7446 67.5051 32.015 64.7673C27.2013 59.966 26.6313 52.5085 30.3008 47.0738C30.7952 46.3383 31.3653 45.6436 32.015 44.9898C34.7446 42.252 38.3242 40.9035 41.9037 40.9035V22.1885C28.1494 22.1885 17 33.3235 17 47.0738C17 60.8241 28.1494 71.9796 41.9037 71.9796C49.0751 71.9796 55.5355 68.9353 60.0794 64.0931V47.0738H53.5067Z" fill="#0079C2"/>
<path d="M56.0252 135.16C57.0385 135.16 58.0652 135.167 59.1052 135.18C60.1452 135.193 61.1185 135.247 62.0252 135.34L61.9252 137.18H57.0052C56.2052 137.18 55.8052 137.587 55.8052 138.4V149H53.3052V137.92C53.3052 137.107 53.5585 136.447 54.0652 135.94C54.5852 135.42 55.2385 135.16 56.0252 135.16ZM66.465 138.94C67.6383 138.94 68.5317 139.187 69.145 139.68C69.7717 140.16 70.085 141.047 70.085 142.34V149H68.165L67.905 147.4C67.665 147.68 67.3583 147.96 66.985 148.24C66.6117 148.507 66.1783 148.733 65.685 148.92C65.205 149.107 64.665 149.2 64.065 149.2C63.1717 149.2 62.4383 148.967 61.865 148.5C61.2917 148.033 61.005 147.353 61.005 146.46V145.42C61.005 144.647 61.2583 144.047 61.765 143.62C62.2717 143.18 62.9783 142.96 63.885 142.96H67.665V142.32C67.6517 141.8 67.525 141.427 67.285 141.2C67.045 140.96 66.5917 140.84 65.925 140.84C65.405 140.84 64.7583 140.86 63.985 140.9C63.225 140.94 62.4583 140.993 61.685 141.06L61.465 139.4C61.9317 139.32 62.4583 139.247 63.045 139.18C63.6317 139.1 64.225 139.04 64.825 139C65.425 138.96 65.9717 138.94 66.465 138.94ZM63.405 146.14C63.405 146.94 63.845 147.347 64.725 147.36C65.1517 147.36 65.625 147.26 66.145 147.06C66.6783 146.86 67.185 146.567 67.665 146.18V144.46H64.545C64.1317 144.473 63.8383 144.58 63.665 144.78C63.4917 144.98 63.405 145.253 63.405 145.6V146.14ZM75.6541 139C76.7741 139 77.6741 139.067 78.3541 139.2C79.0474 139.333 79.5474 139.593 79.8541 139.98C80.1607 140.353 80.3141 140.907 80.3141 141.64C80.3141 142.36 80.1541 142.907 79.8341 143.28C79.5274 143.64 78.9874 143.853 78.2141 143.92V143.98C79.0941 144.047 79.7207 144.293 80.0941 144.72C80.4807 145.133 80.6741 145.753 80.6741 146.58C80.6741 147.3 80.5207 147.853 80.2141 148.24C79.9074 148.613 79.4274 148.867 78.7741 149C78.1207 149.133 77.2874 149.2 76.2741 149.2C75.6074 149.2 74.9141 149.173 74.1941 149.12C73.4874 149.08 72.7941 148.993 72.1141 148.86L72.2741 147.16C72.8474 147.213 73.4741 147.26 74.1541 147.3C74.8341 147.327 75.4874 147.34 76.1141 147.34C76.9141 147.34 77.4607 147.26 77.7541 147.1C78.0474 146.94 78.1941 146.6 78.1941 146.08C78.1941 145.587 78.0474 145.253 77.7541 145.08C77.4607 144.907 76.9207 144.82 76.1341 144.82L73.4941 144.8V143.24L76.1141 143.2C76.8207 143.187 77.3007 143.107 77.5541 142.96C77.8074 142.8 77.9341 142.48 77.9341 142C77.9341 141.533 77.7807 141.233 77.4741 141.1C77.1674 140.953 76.5941 140.88 75.7541 140.88C75.1807 140.88 74.6074 140.9 74.0341 140.94C73.4741 140.967 72.9807 141.007 72.5541 141.06L72.3741 139.36C72.9741 139.2 73.5674 139.1 74.1541 139.06C74.7407 139.02 75.2407 139 75.6541 139ZM91.9308 139.18V149H89.5508V140.94H85.2908V149H82.9308V139.18H91.9308ZM96.6686 139.18L96.8686 140.68C97.3353 140.16 97.9219 139.74 98.6286 139.42C99.3353 139.1 100.055 138.94 100.789 138.94C102.029 138.94 102.909 139.387 103.429 140.28C103.962 141.173 104.229 142.467 104.229 144.16C104.229 145.453 104.089 146.473 103.809 147.22C103.542 147.953 103.135 148.48 102.589 148.8C102.042 149.107 101.355 149.26 100.529 149.26C99.9019 149.26 99.2886 149.18 98.6886 149.02C98.1019 148.86 97.5553 148.6 97.0486 148.24C97.1153 148.933 97.1419 149.627 97.1286 150.32V152.9H94.7086V139.18H96.6686ZM99.8886 140.86C99.4086 140.86 98.9553 140.96 98.5286 141.16C98.1153 141.36 97.6486 141.653 97.1286 142.04V146.9C97.5953 147.033 98.0219 147.153 98.4086 147.26C98.8086 147.353 99.2486 147.4 99.7286 147.4C100.209 147.4 100.595 147.32 100.889 147.16C101.182 146.987 101.395 146.667 101.529 146.2C101.662 145.733 101.729 145.06 101.729 144.18C101.729 143.313 101.662 142.64 101.529 142.16C101.409 141.68 101.215 141.347 100.949 141.16C100.682 140.96 100.329 140.86 99.8886 140.86ZM111.024 138.94C112.21 138.94 113.157 139.107 113.864 139.44C114.584 139.773 115.097 140.32 115.404 141.08C115.724 141.84 115.884 142.847 115.884 144.1C115.884 145.353 115.724 146.36 115.404 147.12C115.097 147.88 114.584 148.427 113.864 148.76C113.157 149.093 112.21 149.26 111.024 149.26C109.824 149.26 108.864 149.093 108.144 148.76C107.437 148.427 106.924 147.88 106.604 147.12C106.284 146.36 106.124 145.353 106.124 144.1C106.124 142.847 106.284 141.84 106.604 141.08C106.924 140.32 107.437 139.773 108.144 139.44C108.864 139.107 109.824 138.94 111.024 138.94ZM111.024 140.78C110.424 140.78 109.95 140.88 109.604 141.08C109.257 141.267 109.01 141.6 108.864 142.08C108.73 142.56 108.664 143.233 108.664 144.1C108.664 144.967 108.73 145.64 108.864 146.12C109.01 146.6 109.257 146.933 109.604 147.12C109.95 147.307 110.424 147.4 111.024 147.4C111.61 147.4 112.07 147.307 112.404 147.12C112.75 146.933 112.99 146.6 113.124 146.12C113.27 145.64 113.344 144.967 113.344 144.1C113.344 143.233 113.27 142.56 113.124 142.08C112.99 141.6 112.75 141.267 112.404 141.08C112.07 140.88 111.61 140.78 111.024 140.78ZM129.804 139.18C130.377 139.18 130.664 139.473 130.664 140.06L131.024 149H128.804L128.464 140.98H128.164L126.164 147.06C126.03 147.567 125.717 147.82 125.224 147.82H123.804C123.31 147.82 122.997 147.567 122.864 147.06L120.864 140.98H120.564L120.264 149H118.064L118.404 140.06C118.404 139.473 118.697 139.18 119.284 139.18H121.524C122.03 139.18 122.337 139.44 122.444 139.96L124.044 144.84C124.124 145.093 124.19 145.333 124.244 145.56C124.297 145.787 124.344 146.027 124.384 146.28H124.644C124.71 146.027 124.764 145.787 124.804 145.56C124.857 145.32 124.917 145.08 124.984 144.84L126.584 139.96C126.704 139.44 127.017 139.18 127.524 139.18H129.804Z" fill="#363738"/>
<path d="M14.557 172.47H18.589C18.5424 171.901 18.4304 171.401 18.253 170.972C18.0757 170.533 17.847 170.174 17.567 169.894C17.287 169.605 16.9604 169.395 16.587 169.264C16.223 169.133 15.8264 169.068 15.397 169.068C14.9584 169.068 14.5664 169.105 14.221 169.18C13.885 169.255 13.6097 169.357 13.395 169.488L13.087 168.578C13.3764 168.41 13.7357 168.279 14.165 168.186C14.5944 168.083 15.0517 168.032 15.537 168.032C16.1344 168.032 16.6897 168.125 17.203 168.312C17.7164 168.499 18.1597 168.797 18.533 169.208C18.9157 169.609 19.2144 170.132 19.429 170.776C19.6437 171.42 19.751 172.195 19.751 173.1C19.751 174.015 19.6297 174.794 19.387 175.438C19.1444 176.082 18.813 176.609 18.393 177.02C17.9824 177.421 17.5017 177.715 16.951 177.902C16.4097 178.079 15.8404 178.168 15.243 178.168C14.7764 178.168 14.361 178.135 13.997 178.07C13.6424 178.005 13.339 177.921 13.087 177.818L13.395 176.796C13.6097 176.899 13.8897 176.983 14.235 177.048C14.5804 177.104 14.9397 177.132 15.313 177.132C15.6864 177.132 16.0597 177.076 16.433 176.964C16.8157 176.843 17.161 176.637 17.469 176.348C17.777 176.059 18.0337 175.681 18.239 175.214C18.4444 174.747 18.5657 174.178 18.603 173.506H14.557V172.47ZM25.8991 174.906H22.7351V178H21.6151V171H22.7351V173.926H25.8991V171H27.0191V178H25.8991V174.906ZM34.2857 177.44C34.0057 177.664 33.651 177.841 33.2217 177.972C32.8017 178.103 32.3537 178.168 31.8777 178.168C31.3457 178.168 30.8837 178.084 30.4917 177.916C30.0997 177.739 29.7777 177.491 29.5257 177.174C29.2737 176.847 29.087 176.46 28.9657 176.012C28.8443 175.564 28.7837 175.06 28.7837 174.5C28.7837 173.305 29.0497 172.395 29.5817 171.77C30.1137 171.145 30.8743 170.832 31.8637 170.832C32.181 170.832 32.4983 170.869 32.8157 170.944C33.133 171.009 33.4177 171.14 33.6697 171.336C33.9217 171.532 34.127 171.812 34.2857 172.176C34.4443 172.531 34.5237 173.002 34.5237 173.59C34.5237 173.898 34.4957 174.239 34.4397 174.612H29.9457C29.9457 175.023 29.9877 175.387 30.0717 175.704C30.1557 176.021 30.2863 176.292 30.4637 176.516C30.641 176.731 30.8697 176.899 31.1497 177.02C31.439 177.132 31.789 177.188 32.1997 177.188C32.517 177.188 32.8343 177.132 33.1517 177.02C33.469 176.908 33.707 176.777 33.8657 176.628L34.2857 177.44ZM31.8777 171.812C31.327 171.812 30.8837 171.957 30.5477 172.246C30.221 172.535 30.025 173.03 29.9597 173.73H33.4317C33.4317 173.021 33.2963 172.526 33.0257 172.246C32.755 171.957 32.3723 171.812 31.8777 171.812ZM36.285 171H37.055L37.265 171.84H37.321C37.5357 171.513 37.811 171.266 38.147 171.098C38.4924 170.921 38.8844 170.832 39.323 170.832C40.2564 170.832 40.9517 171.107 41.409 171.658C41.8664 172.209 42.095 173.109 42.095 174.36C42.095 174.948 42.0157 175.48 41.857 175.956C41.7077 176.423 41.493 176.819 41.213 177.146C40.933 177.473 40.5924 177.725 40.191 177.902C39.799 178.079 39.3604 178.168 38.875 178.168C38.5297 178.168 38.2544 178.145 38.049 178.098C37.853 178.061 37.6384 177.991 37.405 177.888V180.8H36.285V171ZM39.113 171.812C38.637 171.812 38.259 171.938 37.979 172.19C37.7084 172.433 37.517 172.806 37.405 173.31V176.782C37.573 176.913 37.7644 177.015 37.979 177.09C38.1937 177.155 38.4784 177.188 38.833 177.188C39.477 177.188 39.9857 176.95 40.359 176.474C40.7417 175.989 40.933 175.279 40.933 174.346C40.933 173.963 40.9004 173.618 40.835 173.31C40.7697 172.993 40.6624 172.727 40.513 172.512C40.373 172.288 40.1864 172.115 39.953 171.994C39.729 171.873 39.449 171.812 39.113 171.812ZM47.9473 171.98H44.9793V178H43.8593V171H47.9473V171.98ZM53.9185 177.44C53.6385 177.664 53.2838 177.841 52.8545 177.972C52.4345 178.103 51.9865 178.168 51.5105 178.168C50.9785 178.168 50.5165 178.084 50.1245 177.916C49.7325 177.739 49.4105 177.491 49.1585 177.174C48.9065 176.847 48.7198 176.46 48.5985 176.012C48.4771 175.564 48.4165 175.06 48.4165 174.5C48.4165 173.305 48.6825 172.395 49.2145 171.77C49.7465 171.145 50.5071 170.832 51.4965 170.832C51.8138 170.832 52.1311 170.869 52.4485 170.944C52.7658 171.009 53.0505 171.14 53.3025 171.336C53.5545 171.532 53.7598 171.812 53.9185 172.176C54.0771 172.531 54.1565 173.002 54.1565 173.59C54.1565 173.898 54.1285 174.239 54.0725 174.612H49.5785C49.5785 175.023 49.6205 175.387 49.7045 175.704C49.7885 176.021 49.9191 176.292 50.0965 176.516C50.2738 176.731 50.5025 176.899 50.7825 177.02C51.0718 177.132 51.4218 177.188 51.8325 177.188C52.1498 177.188 52.4671 177.132 52.7845 177.02C53.1018 176.908 53.3398 176.777 53.4985 176.628L53.9185 177.44ZM51.5105 171.812C50.9598 171.812 50.5165 171.957 50.1805 172.246C49.8538 172.535 49.6578 173.03 49.5925 173.73H53.0645C53.0645 173.021 52.9291 172.526 52.6585 172.246C52.3878 171.957 52.0051 171.812 51.5105 171.812ZM60.3698 171.98H58.1858V178H57.0658V171.98H54.8818V171H60.3698V171.98ZM65.8503 173.856L65.8923 172.988H65.8503L65.2763 173.884L62.1263 178H61.4823V171H62.6023V175.27L62.5603 176.096H62.6163L63.1623 175.228L66.3123 171H66.9703V178H65.8503V173.856ZM69.8529 171V172.904C69.8529 173.156 69.8669 173.385 69.8949 173.59C69.9229 173.786 69.9789 173.959 70.0629 174.108C70.1469 174.248 70.2682 174.36 70.4269 174.444C70.5855 174.519 70.7955 174.556 71.0569 174.556C71.4769 174.556 71.8222 174.509 72.0929 174.416C72.3635 174.323 72.5689 174.22 72.7089 174.108V171H73.8289V178H72.7089V175.06C72.5595 175.153 72.3355 175.256 72.0369 175.368C71.7475 175.48 71.3462 175.536 70.8329 175.536C70.4875 175.536 70.1842 175.499 69.9229 175.424C69.6615 175.349 69.4422 175.219 69.2649 175.032C69.0875 174.845 68.9522 174.598 68.8589 174.29C68.7749 173.982 68.7329 173.595 68.7329 173.128V171H69.8529ZM81.0982 177.44C80.8182 177.664 80.4635 177.841 80.0342 177.972C79.6142 178.103 79.1662 178.168 78.6902 178.168C78.1582 178.168 77.6962 178.084 77.3042 177.916C76.9122 177.739 76.5902 177.491 76.3382 177.174C76.0862 176.847 75.8995 176.46 75.7782 176.012C75.6568 175.564 75.5962 175.06 75.5962 174.5C75.5962 173.305 75.8622 172.395 76.3942 171.77C76.9262 171.145 77.6868 170.832 78.6762 170.832C78.9935 170.832 79.3108 170.869 79.6282 170.944C79.9455 171.009 80.2302 171.14 80.4822 171.336C80.7342 171.532 80.9395 171.812 81.0982 172.176C81.2568 172.531 81.3362 173.002 81.3362 173.59C81.3362 173.898 81.3082 174.239 81.2522 174.612H76.7582C76.7582 175.023 76.8002 175.387 76.8842 175.704C76.9682 176.021 77.0988 176.292 77.2762 176.516C77.4535 176.731 77.6822 176.899 77.9622 177.02C78.2515 177.132 78.6015 177.188 79.0122 177.188C79.3295 177.188 79.6468 177.132 79.9642 177.02C80.2815 176.908 80.5195 176.777 80.6782 176.628L81.0982 177.44ZM78.6902 171.812C78.1395 171.812 77.6962 171.957 77.3602 172.246C77.0335 172.535 76.8375 173.03 76.7722 173.73H80.2442C80.2442 173.021 80.1088 172.526 79.8382 172.246C79.5675 171.957 79.1848 171.812 78.6902 171.812ZM87.7211 177.538C87.4411 177.743 87.1098 177.897 86.7271 178C86.3445 178.112 85.9431 178.168 85.5231 178.168C84.9818 178.168 84.5245 178.084 84.1511 177.916C83.7778 177.739 83.4698 177.491 83.2271 177.174C82.9938 176.847 82.8211 176.46 82.7091 176.012C82.6065 175.555 82.5551 175.051 82.5551 174.5C82.5551 173.315 82.8165 172.409 83.3391 171.784C83.8618 171.149 84.6131 170.832 85.5931 170.832C86.0411 170.832 86.4191 170.869 86.7271 170.944C87.0445 171.009 87.3291 171.107 87.5811 171.238L87.2591 172.204C87.0445 172.083 86.8065 171.989 86.5451 171.924C86.2838 171.849 86.0038 171.812 85.7051 171.812C84.3798 171.812 83.7171 172.708 83.7171 174.5C83.7171 174.855 83.7498 175.195 83.8151 175.522C83.8898 175.839 84.0065 176.124 84.1651 176.376C84.3331 176.619 84.5478 176.815 84.8091 176.964C85.0798 177.113 85.4111 177.188 85.8031 177.188C86.1391 177.188 86.4378 177.137 86.6991 177.034C86.9698 176.931 87.1891 176.815 87.3571 176.684L87.7211 177.538ZM91.0275 174.85H90.3835V178H89.2635V171H90.3835V174.164L90.9855 173.968L93.2255 171H94.4435L92.2735 173.814L91.6855 174.276L92.4135 174.836L94.7515 178H93.3655L91.0275 174.85ZM95.8371 171.518C96.1918 171.303 96.6024 171.145 97.0691 171.042C97.5451 170.939 98.0398 170.888 98.5531 170.888C99.0384 170.888 99.4258 170.953 99.7151 171.084C100.014 171.215 100.238 171.387 100.387 171.602C100.546 171.807 100.648 172.036 100.695 172.288C100.751 172.54 100.779 172.792 100.779 173.044C100.779 173.604 100.765 174.15 100.737 174.682C100.709 175.214 100.695 175.718 100.695 176.194C100.695 176.539 100.709 176.866 100.737 177.174C100.765 177.482 100.816 177.767 100.891 178.028H100.065L99.7711 177.048H99.7011C99.6171 177.179 99.5098 177.309 99.3791 177.44C99.2578 177.561 99.1084 177.673 98.9311 177.776C98.7538 177.869 98.5484 177.949 98.3151 178.014C98.0818 178.079 97.8158 178.112 97.5171 178.112C97.2184 178.112 96.9384 178.065 96.6771 177.972C96.4251 177.879 96.2058 177.748 96.0191 177.58C95.8324 177.403 95.6831 177.193 95.5711 176.95C95.4684 176.707 95.4171 176.432 95.4171 176.124C95.4171 175.713 95.5011 175.373 95.6691 175.102C95.8371 174.822 96.0704 174.603 96.3691 174.444C96.6771 174.276 97.0411 174.159 97.4611 174.094C97.8904 174.019 98.3618 173.982 98.8751 173.982C99.0058 173.982 99.1318 173.982 99.2531 173.982C99.3838 173.982 99.5144 173.991 99.6451 174.01C99.6731 173.73 99.6871 173.478 99.6871 173.254C99.6871 172.741 99.5844 172.381 99.3791 172.176C99.1738 171.971 98.8004 171.868 98.2591 171.868C98.1004 171.868 97.9278 171.882 97.7411 171.91C97.5638 171.929 97.3771 171.961 97.1811 172.008C96.9944 172.045 96.8124 172.097 96.6351 172.162C96.4671 172.218 96.3178 172.283 96.1871 172.358L95.8371 171.518ZM97.8251 177.132C98.0864 177.132 98.3198 177.099 98.5251 177.034C98.7304 176.959 98.9078 176.871 99.0571 176.768C99.2064 176.656 99.3278 176.535 99.4211 176.404C99.5238 176.273 99.5984 176.147 99.6451 176.026V174.864C99.5144 174.855 99.3791 174.85 99.2391 174.85C99.1084 174.841 98.9778 174.836 98.8471 174.836C98.5578 174.836 98.2731 174.855 97.9931 174.892C97.7224 174.92 97.4798 174.981 97.2651 175.074C97.0598 175.158 96.8918 175.279 96.7611 175.438C96.6398 175.587 96.5791 175.779 96.5791 176.012C96.5791 176.339 96.6958 176.609 96.9291 176.824C97.1624 177.029 97.4611 177.132 97.8251 177.132ZM106.38 175.102L105.302 175.27L103.454 178H102.096L103.776 175.606L104.336 175.088C103.851 175.013 103.436 174.817 103.09 174.5C102.754 174.183 102.586 173.753 102.586 173.212C102.586 172.792 102.656 172.433 102.796 172.134C102.946 171.835 103.156 171.588 103.426 171.392C103.697 171.196 104.019 171.056 104.392 170.972C104.766 170.879 105.186 170.832 105.652 170.832C105.998 170.832 106.32 170.855 106.618 170.902C106.917 170.949 107.211 171 107.5 171.056V178H106.38V175.102ZM106.38 171.952C106.259 171.905 106.124 171.873 105.974 171.854C105.825 171.826 105.694 171.812 105.582 171.812C104.985 171.812 104.528 171.919 104.21 172.134C103.902 172.349 103.748 172.689 103.748 173.156C103.748 173.576 103.912 173.903 104.238 174.136C104.574 174.36 105.013 174.472 105.554 174.472C105.564 174.472 105.578 174.472 105.596 174.472C105.615 174.472 105.652 174.472 105.708 174.472C105.764 174.472 105.844 174.472 105.946 174.472C106.049 174.463 106.194 174.453 106.38 174.444V171.952ZM115.035 174.85H114.391V178H113.271V171H114.391V174.164L114.993 173.968L117.233 171H118.451L116.281 173.814L115.693 174.276L116.421 174.836L118.759 178H117.373L115.035 174.85ZM119.415 174.5C119.415 173.315 119.676 172.409 120.199 171.784C120.731 171.149 121.491 170.832 122.481 170.832C123.003 170.832 123.456 170.921 123.839 171.098C124.231 171.266 124.553 171.513 124.805 171.84C125.057 172.157 125.243 172.545 125.365 173.002C125.486 173.45 125.547 173.949 125.547 174.5C125.547 175.685 125.281 176.595 124.749 177.23C124.226 177.855 123.47 178.168 122.481 178.168C121.958 178.168 121.501 178.084 121.109 177.916C120.726 177.739 120.409 177.491 120.157 177.174C119.905 176.847 119.718 176.46 119.597 176.012C119.475 175.555 119.415 175.051 119.415 174.5ZM120.577 174.5C120.577 174.855 120.609 175.195 120.675 175.522C120.749 175.849 120.861 176.133 121.011 176.376C121.16 176.619 121.356 176.815 121.599 176.964C121.841 177.113 122.135 177.188 122.481 177.188C123.75 177.197 124.385 176.301 124.385 174.5C124.385 174.136 124.347 173.791 124.273 173.464C124.207 173.137 124.1 172.853 123.951 172.61C123.801 172.367 123.605 172.176 123.363 172.036C123.12 171.887 122.826 171.812 122.481 171.812C121.211 171.803 120.577 172.699 120.577 174.5ZM133.094 173.842L133.178 172.512H133.108L132.604 173.59L130.91 176.334H130.518L128.754 173.59L128.292 172.512H128.236L128.348 173.828V178H127.312V171H128.418L130.378 174.136L130.784 174.948H130.812L131.232 174.108L133.066 171H134.186V178H133.094V173.842ZM140.55 171.98H137.456V178H136.336V171H141.67V178H140.55V171.98ZM143.716 171.518C144.071 171.303 144.481 171.145 144.948 171.042C145.424 170.939 145.919 170.888 146.432 170.888C146.917 170.888 147.305 170.953 147.594 171.084C147.893 171.215 148.117 171.387 148.266 171.602C148.425 171.807 148.527 172.036 148.574 172.288C148.63 172.54 148.658 172.792 148.658 173.044C148.658 173.604 148.644 174.15 148.616 174.682C148.588 175.214 148.574 175.718 148.574 176.194C148.574 176.539 148.588 176.866 148.616 177.174C148.644 177.482 148.695 177.767 148.77 178.028H147.944L147.65 177.048H147.58C147.496 177.179 147.389 177.309 147.258 177.44C147.137 177.561 146.987 177.673 146.81 177.776C146.633 177.869 146.427 177.949 146.194 178.014C145.961 178.079 145.695 178.112 145.396 178.112C145.097 178.112 144.817 178.065 144.556 177.972C144.304 177.879 144.085 177.748 143.898 177.58C143.711 177.403 143.562 177.193 143.45 176.95C143.347 176.707 143.296 176.432 143.296 176.124C143.296 175.713 143.38 175.373 143.548 175.102C143.716 174.822 143.949 174.603 144.248 174.444C144.556 174.276 144.92 174.159 145.34 174.094C145.769 174.019 146.241 173.982 146.754 173.982C146.885 173.982 147.011 173.982 147.132 173.982C147.263 173.982 147.393 173.991 147.524 174.01C147.552 173.73 147.566 173.478 147.566 173.254C147.566 172.741 147.463 172.381 147.258 172.176C147.053 171.971 146.679 171.868 146.138 171.868C145.979 171.868 145.807 171.882 145.62 171.91C145.443 171.929 145.256 171.961 145.06 172.008C144.873 172.045 144.691 172.097 144.514 172.162C144.346 172.218 144.197 172.283 144.066 172.358L143.716 171.518ZM145.704 177.132C145.965 177.132 146.199 177.099 146.404 177.034C146.609 176.959 146.787 176.871 146.936 176.768C147.085 176.656 147.207 176.535 147.3 176.404C147.403 176.273 147.477 176.147 147.524 176.026V174.864C147.393 174.855 147.258 174.85 147.118 174.85C146.987 174.841 146.857 174.836 146.726 174.836C146.437 174.836 146.152 174.855 145.872 174.892C145.601 174.92 145.359 174.981 145.144 175.074C144.939 175.158 144.771 175.279 144.64 175.438C144.519 175.587 144.458 175.779 144.458 176.012C144.458 176.339 144.575 176.609 144.808 176.824C145.041 177.029 145.34 177.132 145.704 177.132ZM155.057 174.906H151.893V178H150.773V171H151.893V173.926H155.057V171H156.177V178H155.057V174.906ZM162.702 173.856L162.744 172.988H162.702L162.128 173.884L158.978 178H158.334V171H159.454V175.27L159.412 176.096H159.468L160.014 175.228L163.164 171H163.822V178H162.702V173.856ZM169.462 175.102L168.384 175.27L166.536 178H165.178L166.858 175.606L167.418 175.088C166.933 175.013 166.518 174.817 166.172 174.5C165.836 174.183 165.668 173.753 165.668 173.212C165.668 172.792 165.738 172.433 165.878 172.134C166.028 171.835 166.238 171.588 166.508 171.392C166.779 171.196 167.101 171.056 167.474 170.972C167.848 170.879 168.268 170.832 168.734 170.832C169.08 170.832 169.402 170.855 169.7 170.902C169.999 170.949 170.293 171 170.582 171.056V178H169.462V175.102ZM169.462 171.952C169.341 171.905 169.206 171.873 169.056 171.854C168.907 171.826 168.776 171.812 168.664 171.812C168.067 171.812 167.61 171.919 167.292 172.134C166.984 172.349 166.83 172.689 166.83 173.156C166.83 173.576 166.994 173.903 167.32 174.136C167.656 174.36 168.095 174.472 168.636 174.472C168.646 174.472 168.66 174.472 168.678 174.472C168.697 174.472 168.734 174.472 168.79 174.472C168.846 174.472 168.926 174.472 169.028 174.472C169.131 174.463 169.276 174.453 169.462 174.444V171.952Z" fill="#6B6B6C"/>
</svg>
