<svg width="220" height="161" viewBox="0 0 184 161" fill="none" xmlns="http://www.w3.org/2000/svg">
<rect width="1440" height="9062" transform="translate(-152 -5245)" fill="white"/>
<path d="M49.0347 -0.734375H1V47.2742H49.0347V-0.734375Z" fill="#ED1A3A"/>
<path d="M41.277 4.04733C40.1732 4.04733 39.3372 4.77929 38.9207 5.65889L32.8725 15.6108C32.4531 16.5311 32.147 17.5652 32.147 18.2496C32.147 18.8613 32.2309 19.4016 32.4552 19.8997L38.9977 35.5209H13.5916C12.677 35.5209 11.9222 34.6028 11.9222 33.7553V6.8467C11.73 3.16807 6.43999 3.17005 6.32349 6.96227L6.43906 35.5209C6.43906 38.6258 8.84068 41.1132 11.9222 41.1132H46.5612L38.1181 19.5209C37.8851 18.717 37.7813 17.988 38.3493 17.0297L43.9351 7.95103C44.0138 7.76171 44.1278 6.96122 44.1278 6.73113C44.0171 5.08259 42.7246 3.97452 41.277 4.04733ZM27.5627 4.06017C26.204 4.06927 24.8468 5.00738 24.8468 6.8467V26.102C24.8468 28.8981 21.0844 28.668 21.0844 26.102V6.8467C21.0844 3.16807 15.6397 3.16807 15.6397 6.8467V26.2561C15.6397 30.6949 18.956 33.6461 22.9142 33.6461C26.9802 33.6461 30.285 30.6949 30.285 26.2561V6.8467C30.285 4.97098 28.9214 4.05107 27.5627 4.06017Z" fill="white"/>
<path d="M58.4451 4.90674V17.6086C58.4451 20.7834 58.1218 22.5484 55.5354 22.5484C55.0519 22.5484 54.7286 22.5484 54.2451 22.3737V27.8406C55.2121 28.196 55.8587 28.196 56.6684 28.196C63.9383 28.196 64.2616 22.7261 64.2616 19.5484V10.3766H68.4616V27.8406H74.2751V4.90674H58.4451Z" fill="black"/>
<path d="M76.2151 4.90674L84.1316 21.4911L81.2248 27.8406H87.5248L96.8946 4.90674H90.5946L87.2014 14.6086L83.1617 4.90674H76.2151Z" fill="black"/>
<path d="M98.6716 27.8406H104.488V17.9611L110.465 27.8406H117.895L109.658 16.0213L117.735 4.90674H110.788L104.488 14.6086V4.90674H98.6716V27.8406Z" fill="black"/>
<path d="M127.428 28.5477C135.181 28.5477 138.734 22.5477 138.734 16.373C138.734 10.3759 135.181 4.37598 127.428 4.37598C119.834 4.37598 116.281 10.3759 116.281 16.373C116.281 22.5477 119.834 28.5477 127.428 28.5477ZM127.428 23.0778C124.841 23.0778 122.258 20.7827 122.258 16.373C122.258 11.9633 124.841 9.84586 127.428 9.84586C130.174 9.84586 132.758 11.9633 132.758 16.373C132.758 20.7827 130.174 23.0778 127.428 23.0778Z" fill="black"/>
<path d="M141.645 4.90715V27.841H147.298L155.375 14.0819V27.841H161.031V4.90715H155.375L147.298 18.6692V4.90715H141.645ZM151.498 3.67221C153.921 3.67221 156.344 2.78969 157.477 0.142124L154.084 -1.26758C153.598 0.497463 152.144 0.672219 151.498 0.672219C151.014 0.672219 149.398 0.497463 149.075 -1.26758L145.684 0.142124C146.651 2.78969 149.238 3.67221 151.498 3.67221Z" fill="black"/>
<path d="M167.17 4.90674V17.6086C167.17 20.7834 166.844 22.5484 164.26 22.5484C163.777 22.5484 163.453 22.5484 162.967 22.3737V27.8406C163.937 28.196 164.584 28.196 165.39 28.196C172.66 28.196 172.983 22.7261 172.983 19.5484V10.3766H177.183V27.8406H183V4.90674H167.17Z" fill="black"/>
<path d="M54.2922 40.7113H55.1107V36.456H59.8903V40.7113H60.7087V32.3696H59.8903V35.7861H55.1107V32.3696H54.2922V40.7113Z" fill="black"/>
<path d="M62.7908 40.7113H67.2733V40.0414H63.6092V36.3745H67.1276V35.7046H63.6092V33.0424H67.2733V32.3696H62.7908V40.7113Z" fill="black"/>
<path d="M72.6678 40.7114H73.4775V39.5638H73.8183C76.5153 39.5638 77.6309 37.9677 77.6309 36.2958C77.6309 34.3386 76.1833 33.0425 73.8183 33.0425H73.4775V32.0405H72.6678V33.0425H72.3387C69.9591 33.0425 68.5144 34.3386 68.5144 36.2958C68.5144 37.9677 69.6299 39.5638 72.3387 39.5638H72.6678V40.7114ZM73.4775 33.7124C76.1833 33.7473 76.7775 35.0114 76.7775 36.2958C76.7775 38.2997 75.4464 38.8211 73.4775 38.891V33.7124ZM72.6678 38.891C70.6989 38.8211 69.3678 38.2997 69.3678 36.2958C69.3678 35.0114 69.9591 33.7473 72.6678 33.7124V38.891Z" fill="black"/>
<path d="M80.5866 40.7113H81.373V33.0424H83.5924V32.3696H78.3701V33.0424H80.5866V40.7113Z" fill="black"/>
<path d="M84.5599 40.7113H85.4803L87.6997 37.0473H88.4046V40.7113H89.2259V32.3696H87.3007C84.7754 32.3696 84.4114 34.0444 84.4114 34.7842C84.4114 36.1939 85.5153 37.0473 86.8143 37.0007L84.5599 40.7113ZM88.4046 36.3745H87.222C86.5521 36.3745 85.2211 36.2958 85.2211 34.7026C85.2211 33.156 86.6308 33.0424 87.3007 33.0424H88.4046V36.3745Z" fill="black"/>
<path d="M91.3201 40.7113H92.1385V36.456H96.9181V40.7113H97.7365V32.3696H96.9181V35.7861H92.1385V32.3696H91.3201V40.7113Z" fill="black"/>
<path d="M98.9307 40.7115H99.752L100.9 38.0028H104.415L105.566 40.7115H106.384L102.641 32.1543L98.9307 40.7115ZM101.197 37.3446L102.641 33.931L104.121 37.3446H101.197Z" fill="black"/>
<path d="M107.33 40.7113H108.251L110.47 37.0473H111.175V40.7113H111.994V32.3696H110.071C107.546 32.3696 107.182 34.0444 107.182 34.7842C107.182 36.1939 108.286 37.0473 109.582 37.0007L107.33 40.7113ZM111.175 36.3745H109.993C109.32 36.3745 107.989 36.2958 107.989 34.7026C107.989 33.156 109.401 33.0424 110.071 33.0424H111.175V36.3745Z" fill="black"/>
<path d="M116.855 40.7113H117.674V36.6716L121.416 40.7113H122.485L118.446 36.4094L122.418 32.3696H121.416L117.674 36.2609V32.3696H116.855V40.7113Z" fill="black"/>
<path d="M127.765 40.9737C130.247 40.9737 132.283 39.1882 132.283 36.5582C132.283 33.931 130.247 32.1543 127.765 32.1543C125.319 32.1543 123.283 33.931 123.283 36.5582C123.283 39.1882 125.319 40.9737 127.765 40.9737ZM127.765 40.2688C125.729 40.2688 124.136 38.7426 124.136 36.5582C124.136 34.3737 125.729 32.8155 127.765 32.8155C129.804 32.8155 131.429 34.3737 131.429 36.5582C131.429 38.7426 129.804 40.2688 127.765 40.2688Z" fill="black"/>
<path d="M133.41 40.7114H134.197L134.969 34.5541L138.041 41.0871L141.079 34.5541L141.901 40.7114H142.638L141.49 32.0405L138.041 39.4939L134.558 32.0405L133.41 40.7114Z" fill="black"/>
<path d="M144.175 32.3696V40.7113H144.993V33.0424H149.773V40.7113H150.592V32.3696H144.175Z" fill="black"/>
<path d="M151.789 40.7115H152.607L153.755 38.0028H157.273L158.421 40.7115H159.239L155.497 32.1543L151.789 40.7115ZM154.052 37.3446L155.497 33.931L156.976 37.3446H154.052Z" fill="black"/>
<path d="M160.401 40.7113H161.22V36.456H165.999V40.7113H166.821V32.3696H165.999V35.7861H161.22V32.3696H160.401V40.7113Z" fill="black"/>
<path d="M168.9 32.3697V41.0871L174.615 34.1114V40.7114H175.422V32.0405L169.722 38.9696V32.3697H168.9Z" fill="black"/>
<path d="M177.265 40.7113H178.185L180.405 37.0473H181.11V40.7113H181.931V32.3696H180.009C177.481 32.3696 177.116 34.0444 177.116 34.7842C177.116 36.1939 178.22 37.0473 179.519 37.0007L177.265 40.7113ZM181.11 36.3745H179.927C179.257 36.3745 177.926 36.2958 177.926 34.7026C177.926 33.156 179.336 33.0424 180.009 33.0424H181.11V36.3745Z" fill="black"/>
<path d="M68.507 112.2V126H65.987V114.04H63.787C62.947 114.04 62.4937 114.46 62.427 115.3C62.307 116.647 62.1937 117.8 62.087 118.76C61.9937 119.72 61.8737 120.56 61.727 121.28C61.5804 121.987 61.3804 122.627 61.127 123.2C60.727 124.253 60.1804 125.007 59.487 125.46C58.7937 125.913 57.9737 126.107 57.027 126.04L56.827 124.1C57.267 123.993 57.647 123.833 57.967 123.62C58.3004 123.393 58.5804 123.027 58.807 122.52C58.967 122.133 59.107 121.727 59.227 121.3C59.347 120.86 59.447 120.36 59.527 119.8C59.6204 119.227 59.707 118.553 59.787 117.78C59.867 117.007 59.947 116.08 60.027 115C60.187 113.133 61.187 112.2 63.027 112.2H68.507ZM72.9264 116.18L75.0864 122.94C75.2197 123.393 75.3331 123.853 75.4264 124.32H75.6664C75.7464 124.093 75.8197 123.86 75.8864 123.62C75.9531 123.367 76.0197 123.14 76.0864 122.94L78.2464 116.18H80.8264L77.1464 126.3C76.9064 127.02 76.5864 127.653 76.1864 128.2C75.7864 128.76 75.2864 129.207 74.6864 129.54C74.1664 129.86 73.5797 130.04 72.9264 130.08C72.2864 130.133 71.6197 130.107 70.9264 130L71.1264 128.38C71.6331 128.407 72.0997 128.393 72.5264 128.34C72.9531 128.287 73.3264 128.153 73.6464 127.94C73.9131 127.767 74.1531 127.52 74.3664 127.2C74.5931 126.88 74.7797 126.533 74.9264 126.16L75.0064 126H74.5064C74.0931 126 73.8197 125.8 73.6864 125.4L70.3264 116.18H72.9264ZM84.9016 116.18V118.88C84.9016 119.28 84.8616 119.673 84.7816 120.06H85.8216C86.3949 120.06 86.8482 119.933 87.1816 119.68C87.5149 119.427 87.8016 119.02 88.0416 118.46C88.2816 117.887 88.5549 117.127 88.8616 116.18H91.3416C91.0482 117.033 90.7882 117.747 90.5616 118.32C90.3482 118.88 90.1216 119.34 89.8816 119.7C89.6549 120.047 89.3682 120.313 89.0216 120.5C88.6882 120.673 88.2549 120.793 87.7216 120.86V120.94C88.2816 120.993 88.7416 121.113 89.1016 121.3C89.4616 121.473 89.7682 121.747 90.0216 122.12C90.2882 122.48 90.5416 122.973 90.7816 123.6C91.0216 124.227 91.3082 125.027 91.6416 126H89.1016C88.8082 125.133 88.5549 124.427 88.3416 123.88C88.1282 123.32 87.9149 122.887 87.7016 122.58C87.4882 122.273 87.2349 122.06 86.9416 121.94C86.6482 121.82 86.2816 121.76 85.8416 121.76H84.8016C84.8682 122.093 84.9016 122.393 84.9016 122.66V126H82.4816V116.18H84.9016ZM97.8986 115.94C99.0853 115.94 100.032 116.107 100.739 116.44C101.459 116.773 101.972 117.32 102.279 118.08C102.599 118.84 102.759 119.847 102.759 121.1C102.759 122.353 102.599 123.36 102.279 124.12C101.972 124.88 101.459 125.427 100.739 125.76C100.032 126.093 99.0853 126.26 97.8986 126.26C96.6986 126.26 95.7386 126.093 95.0186 125.76C94.3119 125.427 93.7986 124.88 93.4786 124.12C93.1586 123.36 92.9986 122.353 92.9986 121.1C92.9986 119.847 93.1586 118.84 93.4786 118.08C93.7986 117.32 94.3119 116.773 95.0186 116.44C95.7386 116.107 96.6986 115.94 97.8986 115.94ZM97.8986 117.78C97.2986 117.78 96.8253 117.88 96.4786 118.08C96.1319 118.267 95.8853 118.6 95.7386 119.08C95.6053 119.56 95.5386 120.233 95.5386 121.1C95.5386 121.967 95.6053 122.64 95.7386 123.12C95.8853 123.6 96.1319 123.933 96.4786 124.12C96.8253 124.307 97.2986 124.4 97.8986 124.4C98.4853 124.4 98.9453 124.307 99.2786 124.12C99.6253 123.933 99.8653 123.6 99.9986 123.12C100.145 122.64 100.219 121.967 100.219 121.1C100.219 120.233 100.145 119.56 99.9986 119.08C99.8653 118.6 99.6253 118.267 99.2786 118.08C98.9453 117.88 98.4853 117.78 97.8986 117.78ZM114.319 116.18V126L112.139 126.02V120.28C112.139 120.04 112.145 119.807 112.159 119.58C112.185 119.34 112.205 119.087 112.219 118.82H112.179C112.085 119.033 111.972 119.267 111.839 119.52C111.705 119.76 111.572 119.967 111.439 120.14L107.179 126H105.099V116.18H107.279V121.98C107.279 122.22 107.272 122.447 107.259 122.66C107.245 122.873 107.225 123.113 107.199 123.38H107.239C107.345 123.153 107.459 122.933 107.579 122.72C107.712 122.507 107.845 122.313 107.979 122.14L112.259 116.18H114.319ZM111.179 111.82H112.839C112.892 112.367 112.799 112.867 112.559 113.32C112.319 113.76 111.952 114.12 111.459 114.4C110.979 114.667 110.392 114.8 109.699 114.8C109.005 114.8 108.405 114.667 107.899 114.4C107.405 114.12 107.039 113.76 106.799 113.32C106.559 112.867 106.465 112.367 106.519 111.82H108.179C108.152 112.42 108.272 112.86 108.539 113.14C108.805 113.42 109.192 113.56 109.699 113.56C110.179 113.56 110.552 113.42 110.819 113.14C111.085 112.86 111.205 112.42 111.179 111.82ZM125.891 116.18V126H123.471V117.92H121.811C121.438 117.92 121.164 118.007 120.991 118.18C120.831 118.34 120.731 118.613 120.691 119C120.584 119.84 120.471 120.693 120.351 121.56C120.231 122.427 120.071 123.167 119.871 123.78C119.644 124.673 119.204 125.3 118.551 125.66C117.911 126.02 117.144 126.167 116.251 126.1L115.991 124.3C116.498 124.193 116.878 124.06 117.131 123.9C117.384 123.727 117.578 123.46 117.711 123.1C117.831 122.74 117.938 122.307 118.031 121.8C118.124 121.293 118.204 120.76 118.271 120.2C118.338 119.627 118.391 119.08 118.431 118.56C118.524 117.773 118.771 117.18 119.171 116.78C119.584 116.38 120.204 116.18 121.031 116.18H125.891Z" fill="#363738"/>
<path d="M37.5042 150.506H32.8002V155H31.6382V145.2H32.8002V149.47H37.5042V145.2H38.6662V155H37.5042V150.506ZM46.0425 154.44C45.7625 154.664 45.4078 154.841 44.9785 154.972C44.5585 155.103 44.1105 155.168 43.6345 155.168C43.1025 155.168 42.6405 155.084 42.2485 154.916C41.8565 154.739 41.5345 154.491 41.2825 154.174C41.0305 153.847 40.8438 153.46 40.7225 153.012C40.6012 152.564 40.5405 152.06 40.5405 151.5C40.5405 150.305 40.8065 149.395 41.3385 148.77C41.8705 148.145 42.6312 147.832 43.6205 147.832C43.9378 147.832 44.2552 147.869 44.5725 147.944C44.8898 148.009 45.1745 148.14 45.4265 148.336C45.6785 148.532 45.8838 148.812 46.0425 149.176C46.2012 149.531 46.2805 150.002 46.2805 150.59C46.2805 150.898 46.2525 151.239 46.1965 151.612H41.7025C41.7025 152.023 41.7445 152.387 41.8285 152.704C41.9125 153.021 42.0432 153.292 42.2205 153.516C42.3978 153.731 42.6265 153.899 42.9065 154.02C43.1958 154.132 43.5458 154.188 43.9565 154.188C44.2738 154.188 44.5912 154.132 44.9085 154.02C45.2258 153.908 45.4638 153.777 45.6225 153.628L46.0425 154.44ZM43.6345 148.812C43.0838 148.812 42.6405 148.957 42.3045 149.246C41.9778 149.535 41.7818 150.03 41.7165 150.73H45.1885C45.1885 150.021 45.0532 149.526 44.7825 149.246C44.5118 148.957 44.1292 148.812 43.6345 148.812ZM51.0415 155.056C50.8828 155.112 50.7148 155.145 50.5375 155.154C50.3695 155.163 50.2155 155.168 50.0755 155.168C49.2261 155.168 48.5728 154.869 48.1155 154.272C47.6581 153.675 47.4295 152.751 47.4295 151.5C47.4295 150.305 47.6815 149.405 48.1855 148.798C48.6895 148.191 49.4175 147.888 50.3695 147.888C50.6308 147.888 50.8548 147.907 51.0415 147.944V145.2H52.1055V147.958C52.2735 147.93 52.4228 147.911 52.5535 147.902C52.6841 147.893 52.8101 147.888 52.9315 147.888C53.8555 147.888 54.5508 148.159 55.0175 148.7C55.4841 149.232 55.7175 150.119 55.7175 151.36C55.7175 151.948 55.6521 152.48 55.5215 152.956C55.4001 153.423 55.2181 153.819 54.9755 154.146C54.7328 154.473 54.4341 154.725 54.0795 154.902C53.7341 155.079 53.3328 155.168 52.8755 155.168C52.7915 155.168 52.6655 155.159 52.4975 155.14C52.3388 155.131 52.2081 155.107 52.1055 155.07V157.8H51.0415V155.056ZM52.7215 148.812C52.6095 148.812 52.5068 148.817 52.4135 148.826C52.3295 148.826 52.2221 148.845 52.0915 148.882V154.202C52.1848 154.221 52.2875 154.235 52.3995 154.244C52.5208 154.244 52.6515 154.244 52.7915 154.244C53.3888 154.244 53.8368 153.997 54.1355 153.502C54.4435 153.007 54.5975 152.293 54.5975 151.36C54.5975 150.567 54.4575 149.946 54.1775 149.498C53.9068 149.041 53.4215 148.812 52.7215 148.812ZM50.3555 154.244C50.4675 154.244 50.5795 154.239 50.6915 154.23C50.8035 154.221 50.9248 154.202 51.0555 154.174V148.868C50.9435 148.849 50.8361 148.835 50.7335 148.826C50.6401 148.817 50.5235 148.812 50.3835 148.812C49.8048 148.812 49.3521 149.031 49.0255 149.47C48.7081 149.899 48.5495 150.576 48.5495 151.5C48.5495 151.892 48.5821 152.256 48.6475 152.592C48.7221 152.928 48.8341 153.222 48.9835 153.474C49.1328 153.717 49.3195 153.908 49.5435 154.048C49.7768 154.179 50.0475 154.244 50.3555 154.244ZM61.6404 148.98H59.4564V155H58.3364V148.98H56.1524V148H61.6404V148.98ZM66.2388 152.102L65.1608 152.27L63.3128 155H61.9548L63.6348 152.606L64.1948 152.088C63.7095 152.013 63.2941 151.817 62.9488 151.5C62.6128 151.183 62.4448 150.753 62.4448 150.212C62.4448 149.792 62.5148 149.433 62.6548 149.134C62.8041 148.835 63.0141 148.588 63.2848 148.392C63.5555 148.196 63.8775 148.056 64.2508 147.972C64.6241 147.879 65.0441 147.832 65.5108 147.832C65.8561 147.832 66.1781 147.855 66.4768 147.902C66.7755 147.949 67.0695 148 67.3588 148.056V155H66.2388V152.102ZM66.2388 148.952C66.1175 148.905 65.9821 148.873 65.8328 148.854C65.6835 148.826 65.5528 148.812 65.4408 148.812C64.8435 148.812 64.3861 148.919 64.0688 149.134C63.7608 149.349 63.6068 149.689 63.6068 150.156C63.6068 150.576 63.7701 150.903 64.0968 151.136C64.4328 151.36 64.8715 151.472 65.4128 151.472C65.4221 151.472 65.4361 151.472 65.4548 151.472C65.4735 151.472 65.5108 151.472 65.5668 151.472C65.6228 151.472 65.7021 151.472 65.8048 151.472C65.9075 151.463 66.0521 151.453 66.2388 151.444V148.952ZM73.6813 151.906H70.5173V155H69.3973V148H70.5173V150.926H73.6813V148H74.8013V155H73.6813V151.906ZM76.8459 148.518C77.2005 148.303 77.6112 148.145 78.0779 148.042C78.5539 147.939 79.0485 147.888 79.5619 147.888C80.0472 147.888 80.4345 147.953 80.7239 148.084C81.0225 148.215 81.2465 148.387 81.3959 148.602C81.5545 148.807 81.6572 149.036 81.7039 149.288C81.7599 149.54 81.7879 149.792 81.7879 150.044C81.7879 150.604 81.7739 151.15 81.7459 151.682C81.7179 152.214 81.7039 152.718 81.7039 153.194C81.7039 153.539 81.7179 153.866 81.7459 154.174C81.7739 154.482 81.8252 154.767 81.8999 155.028H81.0739L80.7799 154.048H80.7099C80.6259 154.179 80.5185 154.309 80.3879 154.44C80.2665 154.561 80.1172 154.673 79.9399 154.776C79.7625 154.869 79.5572 154.949 79.3239 155.014C79.0905 155.079 78.8245 155.112 78.5259 155.112C78.2272 155.112 77.9472 155.065 77.6859 154.972C77.4339 154.879 77.2145 154.748 77.0279 154.58C76.8412 154.403 76.6919 154.193 76.5799 153.95C76.4772 153.707 76.4259 153.432 76.4259 153.124C76.4259 152.713 76.5099 152.373 76.6779 152.102C76.8459 151.822 77.0792 151.603 77.3779 151.444C77.6859 151.276 78.0499 151.159 78.4699 151.094C78.8992 151.019 79.3705 150.982 79.8839 150.982C80.0145 150.982 80.1405 150.982 80.2619 150.982C80.3925 150.982 80.5232 150.991 80.6539 151.01C80.6819 150.73 80.6959 150.478 80.6959 150.254C80.6959 149.741 80.5932 149.381 80.3879 149.176C80.1825 148.971 79.8092 148.868 79.2679 148.868C79.1092 148.868 78.9365 148.882 78.7499 148.91C78.5725 148.929 78.3859 148.961 78.1899 149.008C78.0032 149.045 77.8212 149.097 77.6439 149.162C77.4759 149.218 77.3265 149.283 77.1959 149.358L76.8459 148.518ZM78.8339 154.132C79.0952 154.132 79.3285 154.099 79.5339 154.034C79.7392 153.959 79.9165 153.871 80.0659 153.768C80.2152 153.656 80.3365 153.535 80.4299 153.404C80.5325 153.273 80.6072 153.147 80.6539 153.026V151.864C80.5232 151.855 80.3879 151.85 80.2479 151.85C80.1172 151.841 79.9865 151.836 79.8559 151.836C79.5665 151.836 79.2819 151.855 79.0019 151.892C78.7312 151.92 78.4885 151.981 78.2739 152.074C78.0685 152.158 77.9005 152.279 77.7699 152.438C77.6485 152.587 77.5879 152.779 77.5879 153.012C77.5879 153.339 77.7045 153.609 77.9379 153.824C78.1712 154.029 78.4699 154.132 78.8339 154.132ZM87.3892 152.102L86.3112 152.27L84.4632 155H83.1052L84.7852 152.606L85.3452 152.088C84.8599 152.013 84.4445 151.817 84.0992 151.5C83.7632 151.183 83.5952 150.753 83.5952 150.212C83.5952 149.792 83.6652 149.433 83.8052 149.134C83.9545 148.835 84.1645 148.588 84.4352 148.392C84.7059 148.196 85.0279 148.056 85.4012 147.972C85.7745 147.879 86.1945 147.832 86.6612 147.832C87.0065 147.832 87.3285 147.855 87.6272 147.902C87.9259 147.949 88.2199 148 88.5092 148.056V155H87.3892V152.102ZM87.3892 148.952C87.2679 148.905 87.1325 148.873 86.9832 148.854C86.8339 148.826 86.7032 148.812 86.5912 148.812C85.9939 148.812 85.5365 148.919 85.2192 149.134C84.9112 149.349 84.7572 149.689 84.7572 150.156C84.7572 150.576 84.9205 150.903 85.2472 151.136C85.5832 151.36 86.0219 151.472 86.5632 151.472C86.5725 151.472 86.5865 151.472 86.6052 151.472C86.6239 151.472 86.6612 151.472 86.7172 151.472C86.7732 151.472 86.8525 151.472 86.9552 151.472C87.0579 151.463 87.2025 151.453 87.3892 151.444V148.952ZM96.0441 151.85H95.4001V155H94.2801V148H95.4001V151.164L96.0021 150.968L98.2421 148H99.4601L97.2901 150.814L96.7021 151.276L97.4301 151.836L99.7681 155H98.3821L96.0441 151.85ZM100.423 151.5C100.423 150.315 100.685 149.409 101.207 148.784C101.739 148.149 102.5 147.832 103.489 147.832C104.012 147.832 104.465 147.921 104.847 148.098C105.239 148.266 105.561 148.513 105.813 148.84C106.065 149.157 106.252 149.545 106.373 150.002C106.495 150.45 106.555 150.949 106.555 151.5C106.555 152.685 106.289 153.595 105.757 154.23C105.235 154.855 104.479 155.168 103.489 155.168C102.967 155.168 102.509 155.084 102.117 154.916C101.735 154.739 101.417 154.491 101.165 154.174C100.913 153.847 100.727 153.46 100.605 153.012C100.484 152.555 100.423 152.051 100.423 151.5ZM101.585 151.5C101.585 151.855 101.618 152.195 101.683 152.522C101.758 152.849 101.87 153.133 102.019 153.376C102.169 153.619 102.365 153.815 102.607 153.964C102.85 154.113 103.144 154.188 103.489 154.188C104.759 154.197 105.393 153.301 105.393 151.5C105.393 151.136 105.356 150.791 105.281 150.464C105.216 150.137 105.109 149.853 104.959 149.61C104.81 149.367 104.614 149.176 104.371 149.036C104.129 148.887 103.835 148.812 103.489 148.812C102.22 148.803 101.585 149.699 101.585 151.5ZM114.103 150.842L114.187 149.512H114.117L113.613 150.59L111.919 153.334H111.527L109.763 150.59L109.301 149.512H109.245L109.357 150.828V155H108.321V148H109.427L111.387 151.136L111.793 151.948H111.821L112.241 151.108L114.075 148H115.195V155H114.103V150.842ZM121.559 148.98H118.465V155H117.345V148H122.679V155H121.559V148.98ZM124.725 148.518C125.079 148.303 125.49 148.145 125.957 148.042C126.433 147.939 126.927 147.888 127.441 147.888C127.926 147.888 128.313 147.953 128.603 148.084C128.901 148.215 129.125 148.387 129.275 148.602C129.433 148.807 129.536 149.036 129.583 149.288C129.639 149.54 129.667 149.792 129.667 150.044C129.667 150.604 129.653 151.15 129.625 151.682C129.597 152.214 129.583 152.718 129.583 153.194C129.583 153.539 129.597 153.866 129.625 154.174C129.653 154.482 129.704 154.767 129.779 155.028H128.953L128.659 154.048H128.589C128.505 154.179 128.397 154.309 128.267 154.44C128.145 154.561 127.996 154.673 127.819 154.776C127.641 154.869 127.436 154.949 127.203 155.014C126.969 155.079 126.703 155.112 126.405 155.112C126.106 155.112 125.826 155.065 125.565 154.972C125.313 154.879 125.093 154.748 124.907 154.58C124.72 154.403 124.571 154.193 124.459 153.95C124.356 153.707 124.305 153.432 124.305 153.124C124.305 152.713 124.389 152.373 124.557 152.102C124.725 151.822 124.958 151.603 125.257 151.444C125.565 151.276 125.929 151.159 126.349 151.094C126.778 151.019 127.249 150.982 127.763 150.982C127.893 150.982 128.019 150.982 128.141 150.982C128.271 150.982 128.402 150.991 128.533 151.01C128.561 150.73 128.575 150.478 128.575 150.254C128.575 149.741 128.472 149.381 128.267 149.176C128.061 148.971 127.688 148.868 127.147 148.868C126.988 148.868 126.815 148.882 126.629 148.91C126.451 148.929 126.265 148.961 126.069 149.008C125.882 149.045 125.7 149.097 125.523 149.162C125.355 149.218 125.205 149.283 125.075 149.358L124.725 148.518ZM126.713 154.132C126.974 154.132 127.207 154.099 127.413 154.034C127.618 153.959 127.795 153.871 127.945 153.768C128.094 153.656 128.215 153.535 128.309 153.404C128.411 153.273 128.486 153.147 128.533 153.026V151.864C128.402 151.855 128.267 151.85 128.127 151.85C127.996 151.841 127.865 151.836 127.735 151.836C127.445 151.836 127.161 151.855 126.881 151.892C126.61 151.92 126.367 151.981 126.153 152.074C125.947 152.158 125.779 152.279 125.649 152.438C125.527 152.587 125.467 152.779 125.467 153.012C125.467 153.339 125.583 153.609 125.817 153.824C126.05 154.029 126.349 154.132 126.713 154.132ZM136.066 151.906H132.902V155H131.782V148H132.902V150.926H136.066V148H137.186V155H136.066V151.906ZM143.711 150.856L143.753 149.988H143.711L143.137 150.884L139.987 155H139.343V148H140.463V152.27L140.421 153.096H140.477L141.023 152.228L144.173 148H144.831V155H143.711V150.856ZM150.471 152.102L149.393 152.27L147.545 155H146.187L147.867 152.606L148.427 152.088C147.942 152.013 147.527 151.817 147.181 151.5C146.845 151.183 146.677 150.753 146.677 150.212C146.677 149.792 146.747 149.433 146.887 149.134C147.037 148.835 147.247 148.588 147.517 148.392C147.788 148.196 148.11 148.056 148.483 147.972C148.857 147.879 149.277 147.832 149.743 147.832C150.089 147.832 150.411 147.855 150.709 147.902C151.008 147.949 151.302 148 151.591 148.056V155H150.471V152.102ZM150.471 148.952C150.35 148.905 150.215 148.873 150.065 148.854C149.916 148.826 149.785 148.812 149.673 148.812C149.076 148.812 148.619 148.919 148.301 149.134C147.993 149.349 147.839 149.689 147.839 150.156C147.839 150.576 148.003 150.903 148.329 151.136C148.665 151.36 149.104 151.472 149.645 151.472C149.655 151.472 149.669 151.472 149.687 151.472C149.706 151.472 149.743 151.472 149.799 151.472C149.855 151.472 149.935 151.472 150.037 151.472C150.14 151.463 150.285 151.453 150.471 151.444V148.952Z" fill="#6B6B6C"/>
</svg>
