<svg width="225" height="177" viewBox="0 0 225 177" fill="none" xmlns="http://www.w3.org/2000/svg">
<path d="M139.151 11.846C132.33 5.02584 122.911 0.808998 112.501 0.808594C102.09 0.808998 92.6703 5.02584 85.8491 11.846C79.0281 18.6672 74.8113 28.087 74.8113 38.4977C74.8113 48.9083 79.0281 58.3278 85.8489 65.1488C92.6703 71.9695 102.09 76.1862 112.5 76.1866C122.91 76.1862 132.33 71.9689 139.151 65.1488C145.972 58.3272 150.189 48.9077 150.189 38.4977C150.189 28.087 145.973 18.6672 139.151 11.846Z" fill="white"/>
<path d="M74 38.5015C74.0004 17.2359 91.2375 0 112.5 0V0.404494V0.808987C102.091 0.808987 92.6708 5.02684 85.8486 11.8482C79.0272 18.67 74.8094 28.0907 74.8088 38.5013C74.8094 48.9104 79.0272 58.33 85.8486 65.1516C92.6708 71.973 102.091 76.1902 112.5 76.1902C122.909 76.1902 132.329 71.9726 139.151 65.1516C145.973 58.33 150.191 48.9101 150.191 38.5013C150.191 28.0907 145.973 18.67 139.151 11.8482C132.329 5.02684 122.909 0.808987 112.5 0.808987V0.404494V0C133.763 0 151 17.2359 151 38.5015C151 59.7635 133.763 76.9998 112.5 77C91.2375 76.9998 74.0004 59.7635 74 38.5015Z" fill="#C5C9CC"/>
<path d="M112.501 27.5096L112.761 27.437C99.8144 31.4548 89.5704 38.3385 89.3607 43.3936C89.1354 48.8045 100.489 50.0738 114.713 46.2299C128.937 42.3858 140.655 34.8807 140.88 29.4701C140.996 26.6662 138.001 24.975 133.11 24.5303C139.088 24.7976 142.832 26.5394 142.832 29.651C142.832 35.5796 129.249 44.236 112.5 48.9835C95.7515 53.7301 82.1682 52.7706 82.1682 46.8417C82.1688 40.9135 95.7519 32.2563 112.501 27.5096Z" fill="#A0A4A7"/>
<path d="M88.1113 58.6843L130.161 18.3169L126.348 50.0498L119.396 42.0886L88.1113 58.6843Z" fill="#E63F3F"/>
<path d="M76.7079 88.4527C77.4505 88.4527 77.9747 88.3364 78.2803 88.0743C78.5861 87.8265 78.7465 87.4042 78.7465 86.822C78.7465 85.7155 78.0474 85.1621 76.6351 85.1621H75.8777V88.4529H76.7079V88.4527ZM76.6785 89.1371H75.8777V92.9084H75.1061V84.4771H76.5621C77.494 84.4771 78.2223 84.6519 78.7754 85.0159C79.3142 85.3656 79.5763 85.9628 79.5763 86.7635C79.5763 87.6953 79.3142 88.3073 78.7754 88.6418C78.2367 88.9767 77.5377 89.1371 76.6785 89.1371ZM84.8479 92.4719C85.5467 92.4719 86.1583 92.3116 86.7262 91.9768C87.2943 91.6565 87.7311 91.2055 88.0515 90.6517C88.3864 90.0836 88.5464 89.4579 88.5464 88.7587C88.5464 88.1473 88.4155 87.565 88.1387 86.9824C87.8618 86.3997 87.4397 85.9193 86.8865 85.5405C86.3332 85.1621 85.6632 84.9726 84.8768 84.9726C84.3237 84.9726 83.7556 85.1037 83.1731 85.3806C82.6052 85.657 82.1244 86.0793 81.746 86.6474C81.3672 87.2157 81.1779 87.9145 81.1779 88.7006C81.1779 89.3707 81.3238 89.9966 81.6293 90.5648C81.9497 91.1327 82.3866 91.5984 82.9545 91.9338C83.5226 92.2968 84.1487 92.4719 84.8479 92.4719ZM84.8479 93.1272C84.0614 93.1272 83.3187 92.9523 82.6345 92.6174C81.9355 92.2679 81.3822 91.7582 80.9745 91.0884C80.5667 90.4183 80.3483 89.6176 80.3483 88.6855C80.3483 87.797 80.5667 87.0256 81.0036 86.3556C81.4259 85.7003 81.9938 85.1904 82.7073 84.8262C83.4061 84.4624 84.1487 84.2874 84.9059 84.2874C85.576 84.2874 86.173 84.4039 86.7116 84.6371C87.2504 84.8555 87.7166 85.1759 88.1095 85.5836C88.5175 85.9766 88.8233 86.4573 89.0415 86.9961C89.2599 87.5642 89.3618 88.1315 89.3618 88.7437C89.3618 89.617 89.1725 90.389 88.7648 91.0588C88.3571 91.7287 87.8037 92.2383 87.1193 92.588C86.4349 92.9523 85.6777 93.1272 84.8479 93.1272ZM94.8371 84.9726C94.1088 84.9726 93.4537 85.1326 92.9149 85.4386C92.3616 85.7448 91.9538 86.1813 91.6626 86.7344C91.3568 87.3173 91.2112 87.9724 91.2112 88.7152C91.2112 89.8656 91.5461 90.7832 92.2014 91.4524C92.8567 92.1225 93.7306 92.4576 94.8081 92.4576C95.7399 92.4576 96.6427 92.1227 97.5019 91.4524V92.3411C97.1087 92.5888 96.6864 92.7634 96.235 92.8942C95.7545 93.0398 95.2739 93.0983 94.7643 93.0983C94.0944 93.0983 93.4248 92.9818 92.7695 92.7338C92.1142 92.4865 91.5461 92.0353 91.0801 91.38C90.5996 90.7393 90.3666 89.8656 90.3666 88.7587C90.3666 87.958 90.527 87.2153 90.8328 86.5305C91.1238 85.8605 91.6191 85.3221 92.2888 84.9142C92.9734 84.4919 93.8325 84.288 94.8516 84.288C95.7983 84.288 96.7157 84.5791 97.5749 85.1911L97.5456 86.0211C97.2252 85.7588 96.8612 85.5112 96.4389 85.2928C96.002 85.0744 95.4778 84.9726 94.8371 84.9726ZM98.827 92.9088V84.4775H99.5988V88.4242L103.399 84.4775H104.404L100.414 88.5261L104.608 92.9092H103.501L99.5986 88.6422V92.9092L98.827 92.9088ZM109.763 92.4719C110.447 92.4719 111.073 92.3116 111.641 91.9768C112.194 91.6565 112.646 91.2055 112.966 90.6517C113.286 90.0836 113.461 89.4579 113.461 88.7587C113.461 88.1473 113.316 87.565 113.053 86.9824C112.762 86.3997 112.354 85.9193 111.801 85.5405C111.233 85.1621 110.578 84.9726 109.792 84.9726C109.223 84.9726 108.656 85.1037 108.088 85.3806C107.505 85.657 107.025 86.0793 106.646 86.6474C106.268 87.2157 106.078 87.9145 106.078 88.7006C106.078 89.3707 106.238 89.9966 106.544 90.5648C106.85 91.1327 107.287 91.5984 107.869 91.9338C108.423 92.2968 109.064 92.4719 109.763 92.4719ZM109.763 93.1272C108.977 93.1272 108.234 92.9523 107.55 92.6174C106.851 92.2679 106.297 91.7582 105.889 91.0884C105.467 90.4183 105.263 89.6176 105.263 88.6855C105.263 87.797 105.482 87.0256 105.904 86.3556C106.341 85.7003 106.909 85.1904 107.608 84.8262C108.321 84.4624 109.05 84.2874 109.821 84.2874C110.491 84.2874 111.088 84.4039 111.627 84.6371C112.166 84.8555 112.631 85.1759 113.025 85.5836C113.418 85.9766 113.723 86.4573 113.942 86.9961C114.16 87.5642 114.277 88.1315 114.277 88.7437C114.277 89.617 114.073 90.389 113.665 91.0588C113.258 91.7287 112.719 92.2383 112.035 92.588C111.35 92.9523 110.593 93.1272 109.763 93.1272ZM119.752 84.9726C119.009 84.9726 118.369 85.1326 117.816 85.4386C117.277 85.7448 116.854 86.1813 116.564 86.7344C116.272 87.3173 116.127 87.9724 116.127 88.7152C116.127 89.8656 116.447 90.7832 117.117 91.4524C117.772 92.1225 118.631 92.4576 119.708 92.4576C120.655 92.4576 121.558 92.1227 122.417 91.4524L122.403 92.3411C122.01 92.5888 121.588 92.7634 121.136 92.8942C120.669 93.0398 120.175 93.0983 119.665 93.0983C119.01 93.0983 118.34 92.9818 117.67 92.7338C117.015 92.4865 116.461 92.0353 115.996 91.38C115.515 90.7393 115.282 89.8656 115.282 88.7587C115.282 87.958 115.428 87.2153 115.733 86.5305C116.04 85.8605 116.52 85.3221 117.204 84.9142C117.874 84.4919 118.733 84.288 119.767 84.288C120.714 84.288 121.616 84.5791 122.476 85.1911L122.461 86.0211C122.141 85.7588 121.762 85.5112 121.34 85.2928C120.918 85.0744 120.378 84.9726 119.752 84.9726ZM127.659 93.2144L124.703 86.4721L124.063 92.9084H123.276L124.426 84.1133L127.659 91.627L131.008 84.1133L132.101 92.9084H131.3L130.688 86.4721L127.659 93.2144ZM137.182 92.4719C137.867 92.4719 138.493 92.3116 139.047 91.9768C139.614 91.6565 140.051 91.2055 140.386 90.6517C140.706 90.0836 140.867 89.4579 140.867 88.7587C140.867 88.1473 140.736 87.565 140.459 86.9824C140.182 86.3997 139.76 85.9193 139.207 85.5405C138.653 85.1621 137.984 84.9726 137.197 84.9726C136.644 84.9726 136.076 85.1037 135.508 85.3806C134.925 85.657 134.445 86.0793 134.066 86.6474C133.688 87.2157 133.498 87.9145 133.498 88.7006C133.498 89.3707 133.644 89.9966 133.964 90.5648C134.27 91.1327 134.707 91.5984 135.274 91.9338C135.843 92.2968 136.469 92.4719 137.182 92.4719ZM137.182 93.1272C136.382 93.1272 135.653 92.9523 134.955 92.6174C134.27 92.2679 133.717 91.7582 133.294 91.0884C132.887 90.4183 132.683 89.6176 132.683 88.6855C132.683 87.797 132.887 87.0256 133.324 86.3556C133.76 85.7003 134.329 85.1904 135.027 84.8262C135.727 84.4624 136.469 84.2874 137.226 84.2874C137.896 84.2874 138.508 84.4039 139.032 84.6371C139.571 84.8555 140.037 85.1759 140.445 85.5836C140.837 85.9766 141.143 86.4573 141.362 86.9961C141.58 87.5642 141.697 88.1315 141.697 88.7437C141.697 89.617 141.493 90.389 141.085 91.0588C140.677 91.7289 140.138 92.2383 139.44 92.588C138.755 92.9523 137.998 93.1272 137.182 93.1272ZM147.172 84.9726C146.429 84.9726 145.788 85.1326 145.235 85.4386C144.696 85.7448 144.274 86.1813 143.983 86.7344C143.692 87.3173 143.532 87.9724 143.532 88.7152C143.532 89.8656 143.867 90.7832 144.522 91.4524C145.192 92.1225 146.051 92.4576 147.129 92.4576C148.06 92.4576 148.963 92.1227 149.837 91.4524L149.823 92.3411C149.43 92.5888 149.007 92.7634 148.556 92.8942C148.09 93.0398 147.595 93.0983 147.085 93.0983C146.415 93.0983 145.76 92.9818 145.09 92.7338C144.435 92.4865 143.867 92.0353 143.401 91.38C142.935 90.7393 142.688 89.8656 142.688 88.7587C142.688 87.958 142.848 87.2153 143.153 86.5305C143.46 85.8605 143.94 85.3221 144.624 84.9142C145.294 84.4919 146.153 84.288 147.187 84.288C148.134 84.288 149.036 84.5791 149.896 85.1911L149.867 86.0211C149.56 85.7588 149.182 85.5112 148.76 85.2928C148.337 85.0744 147.798 84.9726 147.172 84.9726Z" fill="#A0A4A7" stroke="#A0A4A7" stroke-width="0.216" stroke-miterlimit="2.4142"/>
<path d="M67.9017 132.02C69.1017 132.02 70.0484 132.147 70.7417 132.4C71.4484 132.653 71.9484 133.107 72.2417 133.76C72.5351 134.4 72.6817 135.293 72.6817 136.44C72.6817 137.6 72.5351 138.5 72.2417 139.14C71.9617 139.78 71.4884 140.227 70.8217 140.48C70.1684 140.733 69.2951 140.86 68.2017 140.86C67.6951 140.86 67.1951 140.847 66.7017 140.82C66.2084 140.78 65.7484 140.74 65.3217 140.7V146H62.8217V132.2C63.3551 132.147 63.8551 132.107 64.3217 132.08C64.7884 132.053 65.3017 132.04 65.8617 132.04C66.4217 132.027 67.1017 132.02 67.9017 132.02ZM67.8417 133.98C67.3751 133.98 66.9284 133.98 66.5017 133.98C66.0751 133.98 65.6817 133.987 65.3217 134V138.9H67.8417C68.4284 138.9 68.8884 138.833 69.2217 138.7C69.5684 138.553 69.8084 138.307 69.9417 137.96C70.0884 137.6 70.1617 137.093 70.1617 136.44C70.1617 135.787 70.0884 135.287 69.9417 134.94C69.8084 134.58 69.5684 134.333 69.2217 134.2C68.8884 134.053 68.4284 133.98 67.8417 133.98ZM79.1916 135.94C80.3782 135.94 81.3249 136.107 82.0316 136.44C82.7516 136.773 83.2649 137.32 83.5716 138.08C83.8916 138.84 84.0516 139.847 84.0516 141.1C84.0516 142.353 83.8916 143.36 83.5716 144.12C83.2649 144.88 82.7516 145.427 82.0316 145.76C81.3249 146.093 80.3782 146.26 79.1916 146.26C77.9916 146.26 77.0316 146.093 76.3116 145.76C75.6049 145.427 75.0916 144.88 74.7716 144.12C74.4516 143.36 74.2916 142.353 74.2916 141.1C74.2916 139.847 74.4516 138.84 74.7716 138.08C75.0916 137.32 75.6049 136.773 76.3116 136.44C77.0316 136.107 77.9916 135.94 79.1916 135.94ZM79.1916 137.78C78.5916 137.78 78.1182 137.88 77.7716 138.08C77.4249 138.267 77.1782 138.6 77.0316 139.08C76.8982 139.56 76.8316 140.233 76.8316 141.1C76.8316 141.967 76.8982 142.64 77.0316 143.12C77.1782 143.6 77.4249 143.933 77.7716 144.12C78.1182 144.307 78.5916 144.4 79.1916 144.4C79.7782 144.4 80.2382 144.307 80.5716 144.12C80.9182 143.933 81.1582 143.6 81.2916 143.12C81.4382 142.64 81.5116 141.967 81.5116 141.1C81.5116 140.233 81.4382 139.56 81.2916 139.08C81.1582 138.6 80.9182 138.267 80.5716 138.08C80.2382 137.88 79.7782 137.78 79.1916 137.78ZM90.7917 135.94C91.2851 135.94 91.8517 135.98 92.4917 136.06C93.1317 136.127 93.7117 136.267 94.2317 136.48L93.9517 138C93.4584 137.973 92.9651 137.953 92.4717 137.94C91.9917 137.927 91.5651 137.92 91.1917 137.92C90.5251 137.92 89.9917 138.013 89.5917 138.2C89.2051 138.387 88.9251 138.707 88.7517 139.16C88.5784 139.613 88.4917 140.253 88.4917 141.08C88.4917 141.907 88.5784 142.553 88.7517 143.02C88.9251 143.473 89.2051 143.793 89.5917 143.98C89.9917 144.167 90.5251 144.26 91.1917 144.26C91.5117 144.26 91.9517 144.247 92.5117 144.22C93.0851 144.193 93.6384 144.147 94.1717 144.08L94.3917 145.64C93.8851 145.853 93.3117 146.007 92.6717 146.1C92.0451 146.193 91.4117 146.24 90.7717 146.24C89.5984 146.24 88.6584 146.073 87.9517 145.74C87.2451 145.407 86.7317 144.867 86.4117 144.12C86.1051 143.36 85.9517 142.347 85.9517 141.08C85.9517 139.813 86.1117 138.807 86.4317 138.06C86.7517 137.3 87.2651 136.76 87.9717 136.44C88.6784 136.107 89.6184 135.94 90.7917 135.94ZM98.8508 136.18V138.88C98.8508 139.28 98.8108 139.673 98.7308 140.06H99.7708C100.344 140.06 100.797 139.933 101.131 139.68C101.464 139.427 101.751 139.02 101.991 138.46C102.231 137.887 102.504 137.127 102.811 136.18H105.291C104.997 137.033 104.737 137.747 104.511 138.32C104.297 138.88 104.071 139.34 103.831 139.7C103.604 140.047 103.317 140.313 102.971 140.5C102.637 140.673 102.204 140.793 101.671 140.86V140.94C102.231 140.993 102.691 141.113 103.051 141.3C103.411 141.473 103.717 141.747 103.971 142.12C104.237 142.48 104.491 142.973 104.731 143.6C104.971 144.227 105.257 145.027 105.591 146H103.051C102.757 145.133 102.504 144.427 102.291 143.88C102.077 143.32 101.864 142.887 101.651 142.58C101.437 142.273 101.184 142.06 100.891 141.94C100.597 141.82 100.231 141.76 99.7908 141.76H98.7508C98.8174 142.093 98.8508 142.393 98.8508 142.66V146H96.4308V136.18H98.8508ZM111.848 135.94C113.034 135.94 113.981 136.107 114.688 136.44C115.408 136.773 115.921 137.32 116.228 138.08C116.548 138.84 116.708 139.847 116.708 141.1C116.708 142.353 116.548 143.36 116.228 144.12C115.921 144.88 115.408 145.427 114.688 145.76C113.981 146.093 113.034 146.26 111.848 146.26C110.648 146.26 109.688 146.093 108.968 145.76C108.261 145.427 107.748 144.88 107.428 144.12C107.108 143.36 106.948 142.353 106.948 141.1C106.948 139.847 107.108 138.84 107.428 138.08C107.748 137.32 108.261 136.773 108.968 136.44C109.688 136.107 110.648 135.94 111.848 135.94ZM111.848 137.78C111.248 137.78 110.774 137.88 110.428 138.08C110.081 138.267 109.834 138.6 109.688 139.08C109.554 139.56 109.488 140.233 109.488 141.1C109.488 141.967 109.554 142.64 109.688 143.12C109.834 143.6 110.081 143.933 110.428 144.12C110.774 144.307 111.248 144.4 111.848 144.4C112.434 144.4 112.894 144.307 113.228 144.12C113.574 143.933 113.814 143.6 113.948 143.12C114.094 142.64 114.168 141.967 114.168 141.1C114.168 140.233 114.094 139.56 113.948 139.08C113.814 138.6 113.574 138.267 113.228 138.08C112.894 137.88 112.434 137.78 111.848 137.78ZM123.448 135.94C123.941 135.94 124.508 135.98 125.148 136.06C125.788 136.127 126.368 136.267 126.888 136.48L126.608 138C126.115 137.973 125.621 137.953 125.128 137.94C124.648 137.927 124.221 137.92 123.848 137.92C123.181 137.92 122.648 138.013 122.248 138.2C121.861 138.387 121.581 138.707 121.408 139.16C121.235 139.613 121.148 140.253 121.148 141.08C121.148 141.907 121.235 142.553 121.408 143.02C121.581 143.473 121.861 143.793 122.248 143.98C122.648 144.167 123.181 144.26 123.848 144.26C124.168 144.26 124.608 144.247 125.168 144.22C125.741 144.193 126.295 144.147 126.828 144.08L127.048 145.64C126.541 145.853 125.968 146.007 125.328 146.1C124.701 146.193 124.068 146.24 123.428 146.24C122.255 146.24 121.315 146.073 120.608 145.74C119.901 145.407 119.388 144.867 119.068 144.12C118.761 143.36 118.608 142.347 118.608 141.08C118.608 139.813 118.768 138.807 119.088 138.06C119.408 137.3 119.921 136.76 120.628 136.44C121.335 136.107 122.275 135.94 123.448 135.94ZM140.667 136.18C141.24 136.18 141.527 136.473 141.527 137.06L141.887 146H139.667L139.327 137.98H139.027L137.027 144.06C136.894 144.567 136.58 144.82 136.087 144.82H134.667C134.174 144.82 133.86 144.567 133.727 144.06L131.727 137.98H131.427L131.127 146H128.927L129.267 137.06C129.267 136.473 129.56 136.18 130.147 136.18H132.387C132.894 136.18 133.2 136.44 133.307 136.96L134.907 141.84C134.987 142.093 135.054 142.333 135.107 142.56C135.16 142.787 135.207 143.027 135.247 143.28H135.507C135.574 143.027 135.627 142.787 135.667 142.56C135.72 142.32 135.78 142.08 135.847 141.84L137.447 136.96C137.567 136.44 137.88 136.18 138.387 136.18H140.667ZM148.879 135.94C150.066 135.94 151.012 136.107 151.719 136.44C152.439 136.773 152.952 137.32 153.259 138.08C153.579 138.84 153.739 139.847 153.739 141.1C153.739 142.353 153.579 143.36 153.259 144.12C152.952 144.88 152.439 145.427 151.719 145.76C151.012 146.093 150.066 146.26 148.879 146.26C147.679 146.26 146.719 146.093 145.999 145.76C145.292 145.427 144.779 144.88 144.459 144.12C144.139 143.36 143.979 142.353 143.979 141.1C143.979 139.847 144.139 138.84 144.459 138.08C144.779 137.32 145.292 136.773 145.999 136.44C146.719 136.107 147.679 135.94 148.879 135.94ZM148.879 137.78C148.279 137.78 147.806 137.88 147.459 138.08C147.112 138.267 146.866 138.6 146.719 139.08C146.586 139.56 146.519 140.233 146.519 141.1C146.519 141.967 146.586 142.64 146.719 143.12C146.866 143.6 147.112 143.933 147.459 144.12C147.806 144.307 148.279 144.4 148.879 144.4C149.466 144.4 149.926 144.307 150.259 144.12C150.606 143.933 150.846 143.6 150.979 143.12C151.126 142.64 151.199 141.967 151.199 141.1C151.199 140.233 151.126 139.56 150.979 139.08C150.846 138.6 150.606 138.267 150.259 138.08C149.926 137.88 149.466 137.78 148.879 137.78ZM160.479 135.94C160.973 135.94 161.539 135.98 162.179 136.06C162.819 136.127 163.399 136.267 163.919 136.48L163.639 138C163.146 137.973 162.653 137.953 162.159 137.94C161.679 137.927 161.253 137.92 160.879 137.92C160.213 137.92 159.679 138.013 159.279 138.2C158.893 138.387 158.613 138.707 158.439 139.16C158.266 139.613 158.179 140.253 158.179 141.08C158.179 141.907 158.266 142.553 158.439 143.02C158.613 143.473 158.893 143.793 159.279 143.98C159.679 144.167 160.213 144.26 160.879 144.26C161.199 144.26 161.639 144.247 162.199 144.22C162.773 144.193 163.326 144.147 163.859 144.08L164.079 145.64C163.573 145.853 162.999 146.007 162.359 146.1C161.733 146.193 161.099 146.24 160.459 146.24C159.286 146.24 158.346 146.073 157.639 145.74C156.933 145.407 156.419 144.867 156.099 144.12C155.793 143.36 155.639 142.347 155.639 141.08C155.639 139.813 155.799 138.807 156.119 138.06C156.439 137.3 156.953 136.76 157.659 136.44C158.366 136.107 159.306 135.94 160.479 135.94Z" fill="#363738"/>
<path d="M5.89574 169.464H5.23774V174H4.07574V164.2H5.23774V168.764L5.86774 168.568L9.15774 164.2H10.5017L7.22574 168.414L6.63774 168.876L7.35174 169.436L10.9357 174H9.46574L5.89574 169.464ZM11.2006 170.5C11.2006 169.315 11.462 168.409 11.9846 167.784C12.5166 167.149 13.2773 166.832 14.2666 166.832C14.7893 166.832 15.242 166.921 15.6246 167.098C16.0166 167.266 16.3386 167.513 16.5906 167.84C16.8426 168.157 17.0293 168.545 17.1506 169.002C17.272 169.45 17.3326 169.949 17.3326 170.5C17.3326 171.685 17.0666 172.595 16.5346 173.23C16.012 173.855 15.256 174.168 14.2666 174.168C13.744 174.168 13.2866 174.084 12.8946 173.916C12.512 173.739 12.1946 173.491 11.9426 173.174C11.6906 172.847 11.504 172.46 11.3826 172.012C11.2613 171.555 11.2006 171.051 11.2006 170.5ZM12.3626 170.5C12.3626 170.855 12.3953 171.195 12.4606 171.522C12.5353 171.849 12.6473 172.133 12.7966 172.376C12.946 172.619 13.142 172.815 13.3846 172.964C13.6273 173.113 13.9213 173.188 14.2666 173.188C15.536 173.197 16.1706 172.301 16.1706 170.5C16.1706 170.136 16.1333 169.791 16.0586 169.464C15.9933 169.137 15.886 168.853 15.7366 168.61C15.5873 168.367 15.3913 168.176 15.1486 168.036C14.906 167.887 14.612 167.812 14.2666 167.812C12.9973 167.803 12.3626 168.699 12.3626 170.5ZM19.0985 167H19.8685L20.0785 167.84H20.1345C20.3492 167.513 20.6245 167.266 20.9605 167.098C21.3058 166.921 21.6978 166.832 22.1365 166.832C23.0698 166.832 23.7652 167.107 24.2225 167.658C24.6798 168.209 24.9085 169.109 24.9085 170.36C24.9085 170.948 24.8292 171.48 24.6705 171.956C24.5212 172.423 24.3065 172.819 24.0265 173.146C23.7465 173.473 23.4058 173.725 23.0045 173.902C22.6125 174.079 22.1738 174.168 21.6885 174.168C21.3432 174.168 21.0678 174.145 20.8625 174.098C20.6665 174.061 20.4518 173.991 20.2185 173.888V176.8H19.0985V167ZM21.9265 167.812C21.4505 167.812 21.0725 167.938 20.7925 168.19C20.5218 168.433 20.3305 168.806 20.2185 169.31V172.782C20.3865 172.913 20.5778 173.015 20.7925 173.09C21.0072 173.155 21.2918 173.188 21.6465 173.188C22.2905 173.188 22.7992 172.95 23.1725 172.474C23.5552 171.989 23.7465 171.279 23.7465 170.346C23.7465 169.963 23.7138 169.618 23.6485 169.31C23.5832 168.993 23.4758 168.727 23.3265 168.512C23.1865 168.288 22.9998 168.115 22.7665 167.994C22.5425 167.873 22.2625 167.812 21.9265 167.812ZM30.8867 167.98H27.7927V174H26.6727V167H32.0067V174H30.8867V167.98ZM33.7729 170.5C33.7729 169.315 34.0342 168.409 34.5569 167.784C35.0889 167.149 35.8496 166.832 36.8389 166.832C37.3616 166.832 37.8142 166.921 38.1969 167.098C38.5889 167.266 38.9109 167.513 39.1629 167.84C39.4149 168.157 39.6016 168.545 39.7229 169.002C39.8442 169.45 39.9049 169.949 39.9049 170.5C39.9049 171.685 39.6389 172.595 39.1069 173.23C38.5842 173.855 37.8282 174.168 36.8389 174.168C36.3162 174.168 35.8589 174.084 35.4669 173.916C35.0842 173.739 34.7669 173.491 34.5149 173.174C34.2629 172.847 34.0762 172.46 33.9549 172.012C33.8336 171.555 33.7729 171.051 33.7729 170.5ZM34.9349 170.5C34.9349 170.855 34.9676 171.195 35.0329 171.522C35.1076 171.849 35.2196 172.133 35.3689 172.376C35.5182 172.619 35.7142 172.815 35.9569 172.964C36.1996 173.113 36.4936 173.188 36.8389 173.188C38.1082 173.197 38.7429 172.301 38.7429 170.5C38.7429 170.136 38.7056 169.791 38.6309 169.464C38.5656 169.137 38.4582 168.853 38.3089 168.61C38.1596 168.367 37.9636 168.176 37.7209 168.036C37.4782 167.887 37.1842 167.812 36.8389 167.812C35.5696 167.803 34.9349 168.699 34.9349 170.5ZM41.6708 167H42.4408L42.6508 167.84H42.7068C42.9214 167.513 43.1968 167.266 43.5328 167.098C43.8781 166.921 44.2701 166.832 44.7088 166.832C45.6421 166.832 46.3374 167.107 46.7948 167.658C47.2521 168.209 47.4808 169.109 47.4808 170.36C47.4808 170.948 47.4014 171.48 47.2428 171.956C47.0934 172.423 46.8788 172.819 46.5988 173.146C46.3188 173.473 45.9781 173.725 45.5768 173.902C45.1848 174.079 44.7461 174.168 44.2608 174.168C43.9154 174.168 43.6401 174.145 43.4348 174.098C43.2388 174.061 43.0241 173.991 42.7908 173.888V176.8H41.6708V167ZM44.4988 167.812C44.0228 167.812 43.6448 167.938 43.3648 168.19C43.0941 168.433 42.9028 168.806 42.7908 169.31V172.782C42.9588 172.913 43.1501 173.015 43.3648 173.09C43.5794 173.155 43.8641 173.188 44.2188 173.188C44.8628 173.188 45.3714 172.95 45.7448 172.474C46.1274 171.989 46.3188 171.279 46.3188 170.346C46.3188 169.963 46.2861 169.618 46.2208 169.31C46.1554 168.993 46.0481 168.727 45.8988 168.512C45.7588 168.288 45.5721 168.115 45.3388 167.994C45.1148 167.873 44.8348 167.812 44.4988 167.812ZM49.133 167.518C49.4877 167.303 49.8983 167.145 50.365 167.042C50.841 166.939 51.3357 166.888 51.849 166.888C52.3343 166.888 52.7217 166.953 53.011 167.084C53.3097 167.215 53.5337 167.387 53.683 167.602C53.8417 167.807 53.9443 168.036 53.991 168.288C54.047 168.54 54.075 168.792 54.075 169.044C54.075 169.604 54.061 170.15 54.033 170.682C54.005 171.214 53.991 171.718 53.991 172.194C53.991 172.539 54.005 172.866 54.033 173.174C54.061 173.482 54.1123 173.767 54.187 174.028H53.361L53.067 173.048H52.997C52.913 173.179 52.8057 173.309 52.675 173.44C52.5537 173.561 52.4043 173.673 52.227 173.776C52.0497 173.869 51.8443 173.949 51.611 174.014C51.3777 174.079 51.1117 174.112 50.813 174.112C50.5143 174.112 50.2343 174.065 49.973 173.972C49.721 173.879 49.5017 173.748 49.315 173.58C49.1283 173.403 48.979 173.193 48.867 172.95C48.7643 172.707 48.713 172.432 48.713 172.124C48.713 171.713 48.797 171.373 48.965 171.102C49.133 170.822 49.3663 170.603 49.665 170.444C49.973 170.276 50.337 170.159 50.757 170.094C51.1863 170.019 51.6577 169.982 52.171 169.982C52.3017 169.982 52.4277 169.982 52.549 169.982C52.6797 169.982 52.8103 169.991 52.941 170.01C52.969 169.73 52.983 169.478 52.983 169.254C52.983 168.741 52.8803 168.381 52.675 168.176C52.4697 167.971 52.0963 167.868 51.555 167.868C51.3963 167.868 51.2237 167.882 51.037 167.91C50.8597 167.929 50.673 167.961 50.477 168.008C50.2903 168.045 50.1083 168.097 49.931 168.162C49.763 168.218 49.6137 168.283 49.483 168.358L49.133 167.518ZM51.121 173.132C51.3823 173.132 51.6157 173.099 51.821 173.034C52.0263 172.959 52.2037 172.871 52.353 172.768C52.5023 172.656 52.6237 172.535 52.717 172.404C52.8197 172.273 52.8943 172.147 52.941 172.026V170.864C52.8103 170.855 52.675 170.85 52.535 170.85C52.4043 170.841 52.2737 170.836 52.143 170.836C51.8537 170.836 51.569 170.855 51.289 170.892C51.0183 170.92 50.7757 170.981 50.561 171.074C50.3557 171.158 50.1877 171.279 50.057 171.438C49.9357 171.587 49.875 171.779 49.875 172.012C49.875 172.339 49.9917 172.609 50.225 172.824C50.4583 173.029 50.757 173.132 51.121 173.132ZM62.4763 175.778H61.7203L61.5103 174H56.1903V167H57.3103V173.02H60.3483V167H61.4683V173.02H62.4763V175.778ZM68.2282 169.856L68.2702 168.988H68.2282L67.6542 169.884L64.5042 174H63.8602V167H64.9802V171.27L64.9382 172.096H64.9942L65.5402 171.228L68.6902 167H69.3482V174H68.2282V169.856ZM74.9888 171.102L73.9108 171.27L72.0628 174H70.7048L72.3848 171.606L72.9448 171.088C72.4595 171.013 72.0441 170.817 71.6988 170.5C71.3628 170.183 71.1948 169.753 71.1948 169.212C71.1948 168.792 71.2648 168.433 71.4048 168.134C71.5541 167.835 71.7641 167.588 72.0348 167.392C72.3055 167.196 72.6275 167.056 73.0008 166.972C73.3741 166.879 73.7941 166.832 74.2608 166.832C74.6061 166.832 74.9281 166.855 75.2268 166.902C75.5255 166.949 75.8195 167 76.1088 167.056V174H74.9888V171.102ZM74.9888 167.952C74.8675 167.905 74.7321 167.873 74.5828 167.854C74.4335 167.826 74.3028 167.812 74.1908 167.812C73.5935 167.812 73.1361 167.919 72.8188 168.134C72.5108 168.349 72.3568 168.689 72.3568 169.156C72.3568 169.576 72.5201 169.903 72.8468 170.136C73.1828 170.36 73.6215 170.472 74.1628 170.472C74.1721 170.472 74.1861 170.472 74.2048 170.472C74.2235 170.472 74.2608 170.472 74.3168 170.472C74.3728 170.472 74.4521 170.472 74.5548 170.472C74.6575 170.463 74.8021 170.453 74.9888 170.444V167.952ZM81.8798 167.014C82.2064 166.995 82.5471 166.972 82.9018 166.944C83.2658 166.916 83.7138 166.902 84.2458 166.902C85.1698 166.902 85.8324 167.047 86.2338 167.336C86.6351 167.616 86.8358 168.045 86.8358 168.624C86.8358 168.951 86.7378 169.273 86.5418 169.59C86.3551 169.898 86.0424 170.127 85.6038 170.276V170.332C86.1544 170.435 86.5418 170.626 86.7658 170.906C86.9898 171.186 87.1018 171.559 87.1018 172.026C87.1018 172.754 86.8404 173.281 86.3178 173.608C85.7951 173.935 85.0111 174.098 83.9658 174.098C83.5738 174.098 83.2098 174.084 82.8738 174.056C82.5378 174.037 82.2064 174.014 81.8798 173.986V167.014ZM82.9998 173.062C83.1771 173.081 83.3498 173.095 83.5178 173.104C83.6951 173.113 83.9004 173.118 84.1338 173.118C84.7591 173.118 85.2211 173.029 85.5198 172.852C85.8278 172.675 85.9818 172.371 85.9818 171.942C85.9818 171.606 85.8511 171.335 85.5898 171.13C85.3378 170.915 84.8851 170.808 84.2318 170.808H82.9998V173.062ZM84.3718 169.954C84.5398 169.954 84.7031 169.926 84.8618 169.87C85.0204 169.814 85.1604 169.739 85.2818 169.646C85.4124 169.543 85.5151 169.427 85.5898 169.296C85.6738 169.165 85.7158 169.025 85.7158 168.876C85.7158 168.503 85.6038 168.246 85.3798 168.106C85.1558 167.957 84.7638 167.882 84.2038 167.882C83.9051 167.882 83.6671 167.887 83.4898 167.896C83.3218 167.905 83.1584 167.915 82.9998 167.924V169.954H84.3718ZM94.3625 170.85H93.7185V174H92.5985V167H93.7185V170.164L94.3205 169.968L96.5605 167H97.7785L95.6085 169.814L95.0205 170.276L95.7485 170.836L98.0865 174H96.7005L94.3625 170.85ZM98.7417 170.5C98.7417 169.315 99.003 168.409 99.5257 167.784C100.058 167.149 100.818 166.832 101.808 166.832C102.33 166.832 102.783 166.921 103.166 167.098C103.558 167.266 103.88 167.513 104.132 167.84C104.384 168.157 104.57 168.545 104.692 169.002C104.813 169.45 104.874 169.949 104.874 170.5C104.874 171.685 104.608 172.595 104.076 173.23C103.553 173.855 102.797 174.168 101.808 174.168C101.285 174.168 100.828 174.084 100.436 173.916C100.053 173.739 99.7357 173.491 99.4837 173.174C99.2317 172.847 99.045 172.46 98.9237 172.012C98.8023 171.555 98.7417 171.051 98.7417 170.5ZM99.9037 170.5C99.9037 170.855 99.9363 171.195 100.002 171.522C100.076 171.849 100.188 172.133 100.338 172.376C100.487 172.619 100.683 172.815 100.926 172.964C101.168 173.113 101.462 173.188 101.808 173.188C103.077 173.197 103.712 172.301 103.712 170.5C103.712 170.136 103.674 169.791 103.6 169.464C103.534 169.137 103.427 168.853 103.278 168.61C103.128 168.367 102.932 168.176 102.69 168.036C102.447 167.887 102.153 167.812 101.808 167.812C100.538 167.803 99.9037 168.699 99.9037 170.5ZM111.414 173.538C111.134 173.743 110.802 173.897 110.42 174C110.037 174.112 109.636 174.168 109.216 174.168C108.674 174.168 108.217 174.084 107.844 173.916C107.47 173.739 107.162 173.491 106.92 173.174C106.686 172.847 106.514 172.46 106.402 172.012C106.299 171.555 106.248 171.051 106.248 170.5C106.248 169.315 106.509 168.409 107.032 167.784C107.554 167.149 108.306 166.832 109.286 166.832C109.734 166.832 110.112 166.869 110.42 166.944C110.737 167.009 111.022 167.107 111.274 167.238L110.952 168.204C110.737 168.083 110.499 167.989 110.238 167.924C109.976 167.849 109.696 167.812 109.398 167.812C108.072 167.812 107.41 168.708 107.41 170.5C107.41 170.855 107.442 171.195 107.508 171.522C107.582 171.839 107.699 172.124 107.858 172.376C108.026 172.619 108.24 172.815 108.502 172.964C108.772 173.113 109.104 173.188 109.496 173.188C109.832 173.188 110.13 173.137 110.392 173.034C110.662 172.931 110.882 172.815 111.05 172.684L111.414 173.538ZM118.738 169.842L118.822 168.512H118.752L118.248 169.59L116.554 172.334H116.162L114.398 169.59L113.936 168.512H113.88L113.992 169.828V174H112.956V167H114.062L116.022 170.136L116.428 170.948H116.456L116.876 170.108L118.71 167H119.83V174H118.738V169.842ZM126.347 169.856L126.389 168.988H126.347L125.773 169.884L122.623 174H121.979V167H123.099V171.27L123.057 172.096H123.113L123.659 171.228L126.809 167H127.467V174H126.347V169.856ZM130.35 167V168.904C130.35 169.156 130.364 169.385 130.392 169.59C130.42 169.786 130.476 169.959 130.56 170.108C130.644 170.248 130.765 170.36 130.924 170.444C131.083 170.519 131.293 170.556 131.554 170.556C131.974 170.556 132.319 170.509 132.59 170.416C132.861 170.323 133.066 170.22 133.206 170.108V167H134.326V174H133.206V171.06C133.057 171.153 132.833 171.256 132.534 171.368C132.245 171.48 131.843 171.536 131.33 171.536C130.985 171.536 130.681 171.499 130.42 171.424C130.159 171.349 129.939 171.219 129.762 171.032C129.585 170.845 129.449 170.598 129.356 170.29C129.272 169.982 129.23 169.595 129.23 169.128V167H130.35ZM141.595 173.44C141.315 173.664 140.961 173.841 140.531 173.972C140.111 174.103 139.663 174.168 139.187 174.168C138.655 174.168 138.193 174.084 137.801 173.916C137.409 173.739 137.087 173.491 136.835 173.174C136.583 172.847 136.397 172.46 136.275 172.012C136.154 171.564 136.093 171.06 136.093 170.5C136.093 169.305 136.359 168.395 136.891 167.77C137.423 167.145 138.184 166.832 139.173 166.832C139.491 166.832 139.808 166.869 140.125 166.944C140.443 167.009 140.727 167.14 140.979 167.336C141.231 167.532 141.437 167.812 141.595 168.176C141.754 168.531 141.833 169.002 141.833 169.59C141.833 169.898 141.805 170.239 141.749 170.612H137.255C137.255 171.023 137.297 171.387 137.381 171.704C137.465 172.021 137.596 172.292 137.773 172.516C137.951 172.731 138.179 172.899 138.459 173.02C138.749 173.132 139.099 173.188 139.509 173.188C139.827 173.188 140.144 173.132 140.461 173.02C140.779 172.908 141.017 172.777 141.175 172.628L141.595 173.44ZM139.187 167.812C138.637 167.812 138.193 167.957 137.857 168.246C137.531 168.535 137.335 169.03 137.269 169.73H140.741C140.741 169.021 140.606 168.526 140.335 168.246C140.065 167.957 139.682 167.812 139.187 167.812ZM148.218 173.538C147.938 173.743 147.607 173.897 147.224 174C146.842 174.112 146.44 174.168 146.02 174.168C145.479 174.168 145.022 174.084 144.648 173.916C144.275 173.739 143.967 173.491 143.724 173.174C143.491 172.847 143.318 172.46 143.206 172.012C143.104 171.555 143.052 171.051 143.052 170.5C143.052 169.315 143.314 168.409 143.836 167.784C144.359 167.149 145.11 166.832 146.09 166.832C146.538 166.832 146.916 166.869 147.224 166.944C147.542 167.009 147.826 167.107 148.078 167.238L147.756 168.204C147.542 168.083 147.304 167.989 147.042 167.924C146.781 167.849 146.501 167.812 146.202 167.812C144.877 167.812 144.214 168.708 144.214 170.5C144.214 170.855 144.247 171.195 144.312 171.522C144.387 171.839 144.504 172.124 144.662 172.376C144.83 172.619 145.045 172.815 145.306 172.964C145.577 173.113 145.908 173.188 146.3 173.188C146.636 173.188 146.935 173.137 147.196 173.034C147.467 172.931 147.686 172.815 147.854 172.684L148.218 173.538ZM151.525 170.85H150.881V174H149.761V167H150.881V170.164L151.483 169.968L153.723 167H154.941L152.771 169.814L152.183 170.276L152.911 170.836L155.249 174H153.863L151.525 170.85ZM155.904 170.5C155.904 169.315 156.165 168.409 156.688 167.784C157.22 167.149 157.98 166.832 158.97 166.832C159.492 166.832 159.945 166.921 160.328 167.098C160.72 167.266 161.042 167.513 161.294 167.84C161.546 168.157 161.732 168.545 161.854 169.002C161.975 169.45 162.036 169.949 162.036 170.5C162.036 171.685 161.77 172.595 161.238 173.23C160.715 173.855 159.959 174.168 158.97 174.168C158.447 174.168 157.99 174.084 157.598 173.916C157.215 173.739 156.898 173.491 156.646 173.174C156.394 172.847 156.207 172.46 156.086 172.012C155.964 171.555 155.904 171.051 155.904 170.5ZM157.066 170.5C157.066 170.855 157.098 171.195 157.164 171.522C157.238 171.849 157.35 172.133 157.5 172.376C157.649 172.619 157.845 172.815 158.088 172.964C158.33 173.113 158.624 173.188 158.97 173.188C160.239 173.197 160.874 172.301 160.874 170.5C160.874 170.136 160.836 169.791 160.762 169.464C160.696 169.137 160.589 168.853 160.44 168.61C160.29 168.367 160.094 168.176 159.852 168.036C159.609 167.887 159.315 167.812 158.97 167.812C157.7 167.803 157.066 168.699 157.066 170.5ZM168.17 169.856L168.212 168.988H168.17L167.596 169.884L164.446 174H163.802V167H164.922V171.27L164.88 172.096H164.936L165.482 171.228L168.632 167H169.29V174H168.17V169.856ZM165.412 164.172C165.505 164.601 165.664 164.9 165.888 165.068C166.121 165.236 166.387 165.32 166.686 165.32C166.984 165.32 167.25 165.231 167.484 165.054C167.717 164.877 167.876 164.587 167.96 164.186L168.8 164.452C168.716 164.993 168.473 165.409 168.072 165.698C167.68 165.987 167.208 166.132 166.658 166.132C166.406 166.132 166.154 166.099 165.902 166.034C165.659 165.969 165.44 165.871 165.244 165.74C165.048 165.609 164.88 165.441 164.74 165.236C164.6 165.031 164.506 164.788 164.46 164.508L165.412 164.172ZM174.785 170.5C174.785 169.315 175.046 168.409 175.569 167.784C176.101 167.149 176.861 166.832 177.851 166.832C178.373 166.832 178.826 166.921 179.209 167.098C179.601 167.266 179.923 167.513 180.175 167.84C180.427 168.157 180.613 168.545 180.735 169.002C180.856 169.45 180.917 169.949 180.917 170.5C180.917 171.685 180.651 172.595 180.119 173.23C179.596 173.855 178.84 174.168 177.851 174.168C177.328 174.168 176.871 174.084 176.479 173.916C176.096 173.739 175.779 173.491 175.527 173.174C175.275 172.847 175.088 172.46 174.967 172.012C174.845 171.555 174.785 171.051 174.785 170.5ZM175.947 170.5C175.947 170.855 175.979 171.195 176.045 171.522C176.119 171.849 176.231 172.133 176.381 172.376C176.53 172.619 176.726 172.815 176.969 172.964C177.211 173.113 177.505 173.188 177.851 173.188C179.12 173.197 179.755 172.301 179.755 170.5C179.755 170.136 179.717 169.791 179.643 169.464C179.577 169.137 179.47 168.853 179.321 168.61C179.171 168.367 178.975 168.176 178.733 168.036C178.49 167.887 178.196 167.812 177.851 167.812C176.581 167.803 175.947 168.699 175.947 170.5ZM186.916 167.98H184.732V174H183.612V167.98H181.428V167H186.916V167.98ZM188.028 167H188.798L189.008 167.84H189.064C189.279 167.513 189.554 167.266 189.89 167.098C190.236 166.921 190.628 166.832 191.066 166.832C192 166.832 192.695 167.107 193.152 167.658C193.61 168.209 193.838 169.109 193.838 170.36C193.838 170.948 193.759 171.48 193.6 171.956C193.451 172.423 193.236 172.819 192.956 173.146C192.676 173.473 192.336 173.725 191.934 173.902C191.542 174.079 191.104 174.168 190.618 174.168C190.273 174.168 189.998 174.145 189.792 174.098C189.596 174.061 189.382 173.991 189.148 173.888V176.8H188.028V167ZM190.856 167.812C190.38 167.812 190.002 167.938 189.722 168.19C189.452 168.433 189.26 168.806 189.148 169.31V172.782C189.316 172.913 189.508 173.015 189.722 173.09C189.937 173.155 190.222 173.188 190.576 173.188C191.22 173.188 191.729 172.95 192.102 172.474C192.485 171.989 192.676 171.279 192.676 170.346C192.676 169.963 192.644 169.618 192.578 169.31C192.513 168.993 192.406 168.727 192.256 168.512C192.116 168.288 191.93 168.115 191.696 167.994C191.472 167.873 191.192 167.812 190.856 167.812ZM195.49 167.518C195.845 167.303 196.256 167.145 196.722 167.042C197.198 166.939 197.693 166.888 198.206 166.888C198.692 166.888 199.079 166.953 199.368 167.084C199.667 167.215 199.891 167.387 200.04 167.602C200.199 167.807 200.302 168.036 200.348 168.288C200.404 168.54 200.432 168.792 200.432 169.044C200.432 169.604 200.418 170.15 200.39 170.682C200.362 171.214 200.348 171.718 200.348 172.194C200.348 172.539 200.362 172.866 200.39 173.174C200.418 173.482 200.47 173.767 200.544 174.028H199.718L199.424 173.048H199.354C199.27 173.179 199.163 173.309 199.032 173.44C198.911 173.561 198.762 173.673 198.584 173.776C198.407 173.869 198.202 173.949 197.968 174.014C197.735 174.079 197.469 174.112 197.17 174.112C196.872 174.112 196.592 174.065 196.33 173.972C196.078 173.879 195.859 173.748 195.672 173.58C195.486 173.403 195.336 173.193 195.224 172.95C195.122 172.707 195.07 172.432 195.07 172.124C195.07 171.713 195.154 171.373 195.322 171.102C195.49 170.822 195.724 170.603 196.022 170.444C196.33 170.276 196.694 170.159 197.114 170.094C197.544 170.019 198.015 169.982 198.528 169.982C198.659 169.982 198.785 169.982 198.906 169.982C199.037 169.982 199.168 169.991 199.298 170.01C199.326 169.73 199.34 169.478 199.34 169.254C199.34 168.741 199.238 168.381 199.032 168.176C198.827 167.971 198.454 167.868 197.912 167.868C197.754 167.868 197.581 167.882 197.394 167.91C197.217 167.929 197.03 167.961 196.834 168.008C196.648 168.045 196.466 168.097 196.288 168.162C196.12 168.218 195.971 168.283 195.84 168.358L195.49 167.518ZM197.478 173.132C197.74 173.132 197.973 173.099 198.178 173.034C198.384 172.959 198.561 172.871 198.71 172.768C198.86 172.656 198.981 172.535 199.074 172.404C199.177 172.273 199.252 172.147 199.298 172.026V170.864C199.168 170.855 199.032 170.85 198.892 170.85C198.762 170.841 198.631 170.836 198.5 170.836C198.211 170.836 197.926 170.855 197.646 170.892C197.376 170.92 197.133 170.981 196.918 171.074C196.713 171.158 196.545 171.279 196.414 171.438C196.293 171.587 196.232 171.779 196.232 172.012C196.232 172.339 196.349 172.609 196.582 172.824C196.816 173.029 197.114 173.132 197.478 173.132ZM207.322 173.538C207.042 173.743 206.71 173.897 206.328 174C205.945 174.112 205.544 174.168 205.124 174.168C204.582 174.168 204.125 174.084 203.752 173.916C203.378 173.739 203.07 173.491 202.828 173.174C202.594 172.847 202.422 172.46 202.31 172.012C202.207 171.555 202.156 171.051 202.156 170.5C202.156 169.315 202.417 168.409 202.94 167.784C203.462 167.149 204.214 166.832 205.194 166.832C205.642 166.832 206.02 166.869 206.328 166.944C206.645 167.009 206.93 167.107 207.182 167.238L206.86 168.204C206.645 168.083 206.407 167.989 206.146 167.924C205.884 167.849 205.604 167.812 205.306 167.812C203.98 167.812 203.318 168.708 203.318 170.5C203.318 170.855 203.35 171.195 203.416 171.522C203.49 171.839 203.607 172.124 203.766 172.376C203.934 172.619 204.148 172.815 204.41 172.964C204.68 173.113 205.012 173.188 205.404 173.188C205.74 173.188 206.038 173.137 206.3 173.034C206.57 172.931 206.79 172.815 206.958 172.684L207.322 173.538ZM212.275 167.98H210.245C210.217 168.372 210.189 168.797 210.161 169.254C210.133 169.702 210.091 170.155 210.035 170.612C209.979 171.06 209.904 171.494 209.811 171.914C209.717 172.325 209.596 172.689 209.447 173.006C209.307 173.323 209.129 173.58 208.915 173.776C208.709 173.963 208.462 174.056 208.173 174.056C207.995 174.056 207.841 174.047 207.711 174.028C207.58 174.009 207.463 173.977 207.361 173.93L207.529 172.992C207.641 173.029 207.762 173.048 207.893 173.048C208.079 173.048 208.247 172.969 208.397 172.81C208.546 172.651 208.677 172.353 208.789 171.914C208.901 171.466 208.994 170.85 209.069 170.066C209.143 169.282 209.195 168.26 209.223 167H213.395V174H212.275V167.98ZM219.918 169.856L219.96 168.988H219.918L219.344 169.884L216.194 174H215.55V167H216.67V171.27L216.628 172.096H216.684L217.23 171.228L220.38 167H221.038V174H219.918V169.856Z" fill="#6B6B6C"/>
</svg>
