<svg width="220" height="189" viewBox="0 0 178 189" fill="none" xmlns="http://www.w3.org/2000/svg">
<rect width="1440" height="9062" transform="translate(-794 -5217)" fill="white"/>
<path fill-rule="evenodd" clip-rule="evenodd" d="M65.9266 91.7814C67.4929 91.7814 68.7638 93.208 68.7638 94.9655C68.7638 96.7229 67.4929 98.1496 65.9266 98.1496C64.3603 98.1496 63.0894 96.7229 63.0894 94.9655C63.0894 93.208 64.3603 91.7814 65.9266 91.7814ZM65.9266 89.3556C69.0472 89.3556 71.5779 91.8679 71.5779 94.9655C71.5779 98.0631 69.0472 100.575 65.9266 100.575C62.806 100.575 60.2753 98.0631 60.2753 94.9655C60.2753 91.8679 62.806 89.3556 65.9266 89.3556ZM79.1431 91.7814C80.1115 91.7814 81.0225 92.2152 81.5345 93.0469L83.3909 91.2665C82.355 90.0954 80.836 89.3556 79.1431 89.3556C76.0225 89.3556 73.4918 91.8679 73.4918 94.9655C73.4918 98.0631 76.0225 100.575 79.1431 100.575C80.8752 100.575 82.4253 99.8009 83.462 98.5823L81.533 96.9306C81.018 97.7359 80.0932 98.1496 79.1431 98.1496C77.5768 98.1496 76.3059 96.7229 76.3059 94.9655C76.3059 93.208 77.5768 91.7814 79.1431 91.7814ZM97.8234 95.7018H105.941C105.971 95.4608 105.987 95.2151 105.987 94.9655C105.987 91.8679 103.546 89.3556 100.536 89.3556C97.5266 89.3556 95.0856 91.8679 95.0856 94.9655C95.0856 98.0631 97.5266 100.575 100.536 100.575C102.253 100.575 104.227 100.284 105.226 99.0073L103.985 97.2111C103.362 98.1061 101.715 98.3554 100.664 98.3554C99.275 98.3554 98.1124 97.2193 97.8235 95.7018H97.8234ZM97.8853 93.9578C98.2538 92.5782 99.359 91.5756 100.664 91.5756C101.969 91.5756 103.075 92.5782 103.443 93.9578H97.8853ZM85.1011 89.6119H93.8369V92.019H90.8177V100.319H88.1202V92.019H85.1011V89.6119ZM110.452 94.7992L106.775 89.6119H110.024L112.224 92.9264L114.425 89.6119H117.674L113.997 94.7992L117.84 100.319H114.701L112.224 96.7352L109.748 100.319H106.609L110.452 94.7992ZM112.224 93.428L112.212 93.4491L112.224 93.4493L112.237 93.4491L112.224 93.428ZM53.7132 88.2056C54.8848 88.2056 55.8349 89.1557 55.8349 90.3273C55.8349 91.4989 54.8848 92.449 53.7132 92.449H50.1371V88.2056H53.7132ZM47.1741 85.6861H54.3231C56.886 85.6861 58.9644 87.7645 58.9644 90.3272C58.9644 92.8902 56.886 94.9685 54.3231 94.9685H50.1371V100.319H47.1741V85.6861Z" fill="black"/>
<path fill-rule="evenodd" clip-rule="evenodd" d="M56.0468 13.0468H79.7012L70.6544 4H47V27.6544L56.0468 36.7012V13.0468ZM84.5853 13.0468H108.24V36.7012L117.287 27.6544V4H93.6321L84.5853 13.0468ZM108.24 41.5853V65.2397H84.5853L93.6321 74.2865H117.287V50.6321L108.24 41.5853ZM79.7012 65.2397H56.0468V41.5853L47 50.6321V74.2865H70.6544L79.7012 65.2397Z" fill="black"/>
<path d="M119.811 4.38263H122.074V4.87058H121.187V7.58048H120.699V4.87058H119.811V4.38263ZM124.107 6.76338L125.167 4.38282H125.711V7.58041H125.222V5.47934L124.284 7.58041H123.93L122.992 5.47934V7.58041H122.504V4.38282H123.047L124.107 6.76338Z" fill="black"/>
<path d="M59.808 140.02C61.008 140.02 61.9546 140.147 62.648 140.4C63.3546 140.653 63.8546 141.107 64.148 141.76C64.4413 142.4 64.588 143.293 64.588 144.44C64.588 145.6 64.4413 146.5 64.148 147.14C63.868 147.78 63.3946 148.227 62.728 148.48C62.0746 148.733 61.2013 148.86 60.108 148.86C59.6013 148.86 59.1013 148.847 58.608 148.82C58.1146 148.78 57.6546 148.74 57.228 148.7V154H54.728V140.2C55.2613 140.147 55.7613 140.107 56.228 140.08C56.6946 140.053 57.208 140.04 57.768 140.04C58.328 140.027 59.008 140.02 59.808 140.02ZM59.748 141.98C59.2813 141.98 58.8346 141.98 58.408 141.98C57.9813 141.98 57.588 141.987 57.228 142V146.9H59.748C60.3346 146.9 60.7946 146.833 61.128 146.7C61.4746 146.553 61.7146 146.307 61.848 145.96C61.9946 145.6 62.068 145.093 62.068 144.44C62.068 143.787 61.9946 143.287 61.848 142.94C61.7146 142.58 61.4746 142.333 61.128 142.2C60.7946 142.053 60.3346 141.98 59.748 141.98ZM71.0978 143.94C72.2845 143.94 73.2311 144.107 73.9378 144.44C74.6578 144.773 75.1711 145.32 75.4778 146.08C75.7978 146.84 75.9578 147.847 75.9578 149.1C75.9578 150.353 75.7978 151.36 75.4778 152.12C75.1711 152.88 74.6578 153.427 73.9378 153.76C73.2311 154.093 72.2845 154.26 71.0978 154.26C69.8978 154.26 68.9378 154.093 68.2178 153.76C67.5111 153.427 66.9978 152.88 66.6778 152.12C66.3578 151.36 66.1978 150.353 66.1978 149.1C66.1978 147.847 66.3578 146.84 66.6778 146.08C66.9978 145.32 67.5111 144.773 68.2178 144.44C68.9378 144.107 69.8978 143.94 71.0978 143.94ZM71.0978 145.78C70.4978 145.78 70.0245 145.88 69.6778 146.08C69.3311 146.267 69.0845 146.6 68.9378 147.08C68.8045 147.56 68.7378 148.233 68.7378 149.1C68.7378 149.967 68.8045 150.64 68.9378 151.12C69.0845 151.6 69.3311 151.933 69.6778 152.12C70.0245 152.307 70.4978 152.4 71.0978 152.4C71.6845 152.4 72.1445 152.307 72.4778 152.12C72.8245 151.933 73.0645 151.6 73.1978 151.12C73.3445 150.64 73.4178 149.967 73.4178 149.1C73.4178 148.233 73.3445 147.56 73.1978 147.08C73.0645 146.6 72.8245 146.267 72.4778 146.08C72.1445 145.88 71.6845 145.78 71.0978 145.78ZM82.698 143.94C83.1913 143.94 83.758 143.98 84.398 144.06C85.038 144.127 85.618 144.267 86.138 144.48L85.858 146C85.3646 145.973 84.8713 145.953 84.378 145.94C83.898 145.927 83.4713 145.92 83.098 145.92C82.4313 145.92 81.898 146.013 81.498 146.2C81.1113 146.387 80.8313 146.707 80.658 147.16C80.4846 147.613 80.398 148.253 80.398 149.08C80.398 149.907 80.4846 150.553 80.658 151.02C80.8313 151.473 81.1113 151.793 81.498 151.98C81.898 152.167 82.4313 152.26 83.098 152.26C83.418 152.26 83.858 152.247 84.418 152.22C84.9913 152.193 85.5446 152.147 86.078 152.08L86.298 153.64C85.7913 153.853 85.218 154.007 84.578 154.1C83.9513 154.193 83.318 154.24 82.678 154.24C81.5046 154.24 80.5646 154.073 79.858 153.74C79.1513 153.407 78.638 152.867 78.318 152.12C78.0113 151.36 77.858 150.347 77.858 149.08C77.858 147.813 78.018 146.807 78.338 146.06C78.658 145.3 79.1713 144.76 79.878 144.44C80.5846 144.107 81.5246 143.94 82.698 143.94ZM96.597 144.18V146.08H93.217V154H90.797V146.08H87.397V144.18H96.597ZM102.678 143.94C104.265 143.94 105.405 144.22 106.098 144.78C106.791 145.327 107.145 146.14 107.158 147.22C107.158 148.113 106.945 148.793 106.518 149.26C106.105 149.713 105.398 149.94 104.398 149.94H100.418C100.511 150.887 100.765 151.513 101.178 151.82C101.591 152.127 102.231 152.28 103.098 152.28C103.591 152.28 104.158 152.26 104.798 152.22C105.451 152.18 106.078 152.127 106.678 152.06L106.918 153.6C106.558 153.747 106.145 153.873 105.678 153.98C105.211 154.073 104.725 154.14 104.218 154.18C103.711 154.22 103.238 154.24 102.798 154.24C101.011 154.24 99.738 153.84 98.978 153.04C98.2313 152.227 97.858 150.913 97.858 149.1C97.858 147.807 98.018 146.787 98.338 146.04C98.6713 145.28 99.1913 144.74 99.898 144.42C100.605 144.1 101.531 143.94 102.678 143.94ZM102.758 145.74C102.185 145.74 101.725 145.813 101.378 145.96C101.045 146.107 100.798 146.38 100.638 146.78C100.491 147.167 100.411 147.72 100.398 148.44H103.738C104.178 148.44 104.458 148.32 104.578 148.08C104.711 147.84 104.778 147.547 104.778 147.2C104.778 146.667 104.625 146.293 104.318 146.08C104.011 145.853 103.491 145.74 102.758 145.74ZM110.857 144.18L113.157 148.1H113.457L115.777 144.18H118.277L115.357 148.96L118.497 154H115.977L113.417 149.72H113.197L110.617 154H108.097L111.257 148.96L108.357 144.18H110.857Z" fill="#363738"/>
<path d="M6.5908 174.236H2.0688V183H0.906797V173.2H7.7528V183H6.5908V174.236ZM10.0233 176H10.7933L11.0033 176.84H11.0593C11.274 176.513 11.5493 176.266 11.8853 176.098C12.2306 175.921 12.6226 175.832 13.0613 175.832C13.9946 175.832 14.69 176.107 15.1473 176.658C15.6046 177.209 15.8333 178.109 15.8333 179.36C15.8333 179.948 15.754 180.48 15.5953 180.956C15.446 181.423 15.2313 181.819 14.9513 182.146C14.6713 182.473 14.3306 182.725 13.9293 182.902C13.5373 183.079 13.0986 183.168 12.6133 183.168C12.268 183.168 11.9926 183.145 11.7873 183.098C11.5913 183.061 11.3766 182.991 11.1433 182.888V185.8H10.0233V176ZM12.8513 176.812C12.3753 176.812 11.9973 176.938 11.7173 177.19C11.4466 177.433 11.2553 177.806 11.1433 178.31V181.782C11.3113 181.913 11.5026 182.015 11.7173 182.09C11.932 182.155 12.2166 182.188 12.5713 182.188C13.2153 182.188 13.724 181.95 14.0973 181.474C14.48 180.989 14.6713 180.279 14.6713 179.346C14.6713 178.963 14.6386 178.618 14.5733 178.31C14.508 177.993 14.4006 177.727 14.2513 177.512C14.1113 177.288 13.9246 177.115 13.6913 176.994C13.4673 176.873 13.1873 176.812 12.8513 176.812ZM17.2055 179.5C17.2055 178.315 17.4669 177.409 17.9895 176.784C18.5215 176.149 19.2822 175.832 20.2715 175.832C20.7942 175.832 21.2469 175.921 21.6295 176.098C22.0215 176.266 22.3435 176.513 22.5955 176.84C22.8475 177.157 23.0342 177.545 23.1555 178.002C23.2769 178.45 23.3375 178.949 23.3375 179.5C23.3375 180.685 23.0715 181.595 22.5395 182.23C22.0169 182.855 21.2609 183.168 20.2715 183.168C19.7489 183.168 19.2915 183.084 18.8995 182.916C18.5169 182.739 18.1995 182.491 17.9475 182.174C17.6955 181.847 17.5089 181.46 17.3875 181.012C17.2662 180.555 17.2055 180.051 17.2055 179.5ZM18.3675 179.5C18.3675 179.855 18.4002 180.195 18.4655 180.522C18.5402 180.849 18.6522 181.133 18.8015 181.376C18.9509 181.619 19.1469 181.815 19.3895 181.964C19.6322 182.113 19.9262 182.188 20.2715 182.188C21.5409 182.197 22.1755 181.301 22.1755 179.5C22.1755 179.136 22.1382 178.791 22.0635 178.464C21.9982 178.137 21.8909 177.853 21.7415 177.61C21.5922 177.367 21.3962 177.176 21.1535 177.036C20.9109 176.887 20.6169 176.812 20.2715 176.812C19.0022 176.803 18.3675 177.699 18.3675 179.5ZM30.8854 178.842L30.9694 177.512H30.8994L30.3954 178.59L28.7014 181.334H28.3094L26.5454 178.59L26.0834 177.512H26.0274L26.1394 178.828V183H25.1034V176H26.2094L28.1694 179.136L28.5754 179.948H28.6034L29.0234 179.108L30.8574 176H31.9774V183H30.8854V178.842ZM35.2468 182.02C35.5922 182.076 35.9235 182.104 36.2408 182.104C36.8288 182.104 37.2395 181.992 37.4728 181.768C37.7062 181.535 37.8228 181.208 37.8228 180.788C37.8228 180.415 37.7062 180.107 37.4728 179.864C37.2488 179.621 36.8522 179.5 36.2828 179.5C36.1242 179.5 35.9515 179.505 35.7648 179.514C35.5782 179.523 35.4055 179.551 35.2468 179.598V182.02ZM35.2468 178.674C35.4708 178.637 35.6855 178.613 35.8908 178.604C36.0962 178.585 36.2922 178.576 36.4788 178.576C36.9548 178.576 37.3515 178.632 37.6688 178.744C37.9955 178.847 38.2568 178.991 38.4528 179.178C38.6488 179.365 38.7842 179.589 38.8588 179.85C38.9428 180.102 38.9848 180.373 38.9848 180.662C38.9848 181.511 38.7468 182.127 38.2708 182.51C37.8042 182.893 37.0435 183.084 35.9888 183.084C35.3915 183.084 34.7708 183.056 34.1268 183V176H35.2468V178.674ZM40.0908 176H41.2108V183H40.0908V176ZM43.369 183V176H44.489V182.02H46.883V176H48.003V182.02H50.397V176H51.517V183H43.369ZM57.4436 176.98H55.4136C55.3856 177.372 55.3576 177.797 55.3296 178.254C55.3016 178.702 55.2596 179.155 55.2036 179.612C55.1476 180.06 55.0729 180.494 54.9796 180.914C54.8863 181.325 54.7649 181.689 54.6156 182.006C54.4756 182.323 54.2983 182.58 54.0836 182.776C53.8783 182.963 53.6309 183.056 53.3416 183.056C53.1643 183.056 53.0103 183.047 52.8796 183.028C52.7489 183.009 52.6323 182.977 52.5296 182.93L52.6976 181.992C52.8096 182.029 52.9309 182.048 53.0616 182.048C53.2483 182.048 53.4163 181.969 53.5656 181.81C53.7149 181.651 53.8456 181.353 53.9576 180.914C54.0696 180.466 54.1629 179.85 54.2376 179.066C54.3123 178.282 54.3636 177.26 54.3916 176H58.5636V183H57.4436V176.98ZM65.8286 182.44C65.5486 182.664 65.194 182.841 64.7646 182.972C64.3446 183.103 63.8966 183.168 63.4206 183.168C62.8886 183.168 62.4266 183.084 62.0346 182.916C61.6426 182.739 61.3206 182.491 61.0686 182.174C60.8166 181.847 60.63 181.46 60.5086 181.012C60.3873 180.564 60.3266 180.06 60.3266 179.5C60.3266 178.305 60.5926 177.395 61.1246 176.77C61.6566 176.145 62.4173 175.832 63.4066 175.832C63.724 175.832 64.0413 175.869 64.3586 175.944C64.676 176.009 64.9606 176.14 65.2126 176.336C65.4646 176.532 65.67 176.812 65.8286 177.176C65.9873 177.531 66.0666 178.002 66.0666 178.59C66.0666 178.898 66.0386 179.239 65.9826 179.612H61.4886C61.4886 180.023 61.5306 180.387 61.6146 180.704C61.6986 181.021 61.8293 181.292 62.0066 181.516C62.184 181.731 62.4126 181.899 62.6926 182.02C62.982 182.132 63.332 182.188 63.7426 182.188C64.06 182.188 64.3773 182.132 64.6946 182.02C65.012 181.908 65.25 181.777 65.4086 181.628L65.8286 182.44ZM63.4206 176.812C62.87 176.812 62.4266 176.957 62.0906 177.246C61.764 177.535 61.568 178.03 61.5026 178.73H64.9746C64.9746 178.021 64.8393 177.526 64.5686 177.246C64.298 176.957 63.9153 176.812 63.4206 176.812ZM72.112 179.906H68.948V183H67.828V176H68.948V178.926H72.112V176H73.232V183H72.112V179.906ZM79.6725 179.906H76.5085V183H75.3885V176H76.5085V178.926H79.6725V176H80.7925V183H79.6725V179.906ZM82.8371 176.518C83.1918 176.303 83.6024 176.145 84.0691 176.042C84.5451 175.939 85.0398 175.888 85.5531 175.888C86.0384 175.888 86.4258 175.953 86.7151 176.084C87.0138 176.215 87.2378 176.387 87.3871 176.602C87.5458 176.807 87.6484 177.036 87.6951 177.288C87.7511 177.54 87.7791 177.792 87.7791 178.044C87.7791 178.604 87.7651 179.15 87.7371 179.682C87.7091 180.214 87.6951 180.718 87.6951 181.194C87.6951 181.539 87.7091 181.866 87.7371 182.174C87.7651 182.482 87.8164 182.767 87.8911 183.028H87.0651L86.7711 182.048H86.7011C86.6171 182.179 86.5098 182.309 86.3791 182.44C86.2578 182.561 86.1084 182.673 85.9311 182.776C85.7538 182.869 85.5484 182.949 85.3151 183.014C85.0818 183.079 84.8158 183.112 84.5171 183.112C84.2184 183.112 83.9384 183.065 83.6771 182.972C83.4251 182.879 83.2058 182.748 83.0191 182.58C82.8324 182.403 82.6831 182.193 82.5711 181.95C82.4684 181.707 82.4171 181.432 82.4171 181.124C82.4171 180.713 82.5011 180.373 82.6691 180.102C82.8371 179.822 83.0704 179.603 83.3691 179.444C83.6771 179.276 84.0411 179.159 84.4611 179.094C84.8904 179.019 85.3618 178.982 85.8751 178.982C86.0058 178.982 86.1318 178.982 86.2531 178.982C86.3838 178.982 86.5144 178.991 86.6451 179.01C86.6731 178.73 86.6871 178.478 86.6871 178.254C86.6871 177.741 86.5844 177.381 86.3791 177.176C86.1738 176.971 85.8004 176.868 85.2591 176.868C85.1004 176.868 84.9278 176.882 84.7411 176.91C84.5638 176.929 84.3771 176.961 84.1811 177.008C83.9944 177.045 83.8124 177.097 83.6351 177.162C83.4671 177.218 83.3178 177.283 83.1871 177.358L82.8371 176.518ZM84.8251 182.132C85.0864 182.132 85.3198 182.099 85.5251 182.034C85.7304 181.959 85.9078 181.871 86.0571 181.768C86.2064 181.656 86.3278 181.535 86.4211 181.404C86.5238 181.273 86.5984 181.147 86.6451 181.026V179.864C86.5144 179.855 86.3791 179.85 86.2391 179.85C86.1084 179.841 85.9778 179.836 85.8471 179.836C85.5578 179.836 85.2731 179.855 84.9931 179.892C84.7224 179.92 84.4798 179.981 84.2651 180.074C84.0598 180.158 83.8918 180.279 83.7611 180.438C83.6398 180.587 83.5791 180.779 83.5791 181.012C83.5791 181.339 83.6958 181.609 83.9291 181.824C84.1624 182.029 84.4611 182.132 84.8251 182.132ZM93.3804 180.102L92.3024 180.27L90.4544 183H89.0964L90.7764 180.606L91.3364 180.088C90.8511 180.013 90.4357 179.817 90.0904 179.5C89.7544 179.183 89.5864 178.753 89.5864 178.212C89.5864 177.792 89.6564 177.433 89.7964 177.134C89.9457 176.835 90.1557 176.588 90.4264 176.392C90.6971 176.196 91.0191 176.056 91.3924 175.972C91.7657 175.879 92.1857 175.832 92.6524 175.832C92.9977 175.832 93.3197 175.855 93.6184 175.902C93.9171 175.949 94.2111 176 94.5004 176.056V183H93.3804V180.102ZM93.3804 176.952C93.2591 176.905 93.1237 176.873 92.9744 176.854C92.8251 176.826 92.6944 176.812 92.5824 176.812C91.9851 176.812 91.5277 176.919 91.2104 177.134C90.9024 177.349 90.7484 177.689 90.7484 178.156C90.7484 178.576 90.9117 178.903 91.2384 179.136C91.5744 179.36 92.0131 179.472 92.5544 179.472C92.5637 179.472 92.5777 179.472 92.5964 179.472C92.6151 179.472 92.6524 179.472 92.7084 179.472C92.7644 179.472 92.8437 179.472 92.9464 179.472C93.0491 179.463 93.1937 179.453 93.3804 179.444V176.952ZM102.035 179.85H101.391V183H100.271V176H101.391V179.164L101.993 178.968L104.233 176H105.451L103.281 178.814L102.693 179.276L103.421 179.836L105.759 183H104.373L102.035 179.85ZM106.415 179.5C106.415 178.315 106.676 177.409 107.199 176.784C107.731 176.149 108.491 175.832 109.481 175.832C110.003 175.832 110.456 175.921 110.839 176.098C111.231 176.266 111.553 176.513 111.805 176.84C112.057 177.157 112.243 177.545 112.365 178.002C112.486 178.45 112.547 178.949 112.547 179.5C112.547 180.685 112.281 181.595 111.749 182.23C111.226 182.855 110.47 183.168 109.481 183.168C108.958 183.168 108.501 183.084 108.109 182.916C107.726 182.739 107.409 182.491 107.157 182.174C106.905 181.847 106.718 181.46 106.597 181.012C106.475 180.555 106.415 180.051 106.415 179.5ZM107.577 179.5C107.577 179.855 107.609 180.195 107.675 180.522C107.749 180.849 107.861 181.133 108.011 181.376C108.16 181.619 108.356 181.815 108.599 181.964C108.841 182.113 109.135 182.188 109.481 182.188C110.75 182.197 111.385 181.301 111.385 179.5C111.385 179.136 111.347 178.791 111.273 178.464C111.207 178.137 111.1 177.853 110.951 177.61C110.801 177.367 110.605 177.176 110.363 177.036C110.12 176.887 109.826 176.812 109.481 176.812C108.211 176.803 107.577 177.699 107.577 179.5ZM114.312 176H115.082L115.292 176.84H115.348C115.563 176.513 115.838 176.266 116.174 176.098C116.52 175.921 116.912 175.832 117.35 175.832C118.284 175.832 118.979 176.107 119.436 176.658C119.894 177.209 120.122 178.109 120.122 179.36C120.122 179.948 120.043 180.48 119.884 180.956C119.735 181.423 119.52 181.819 119.24 182.146C118.96 182.473 118.62 182.725 118.218 182.902C117.826 183.079 117.388 183.168 116.902 183.168C116.557 183.168 116.282 183.145 116.076 183.098C115.88 183.061 115.666 182.991 115.432 182.888V185.8H114.312V176ZM117.14 176.812C116.664 176.812 116.286 176.938 116.006 177.19C115.736 177.433 115.544 177.806 115.432 178.31V181.782C115.6 181.913 115.792 182.015 116.006 182.09C116.221 182.155 116.506 182.188 116.86 182.188C117.504 182.188 118.013 181.95 118.386 181.474C118.769 180.989 118.96 180.279 118.96 179.346C118.96 178.963 118.928 178.618 118.862 178.31C118.797 177.993 118.69 177.727 118.54 177.512C118.4 177.288 118.214 177.115 117.98 176.994C117.756 176.873 117.476 176.812 117.14 176.812ZM126.101 176.98H123.007V183H121.887V176H127.221V183H126.101V176.98ZM128.987 179.5C128.987 178.315 129.248 177.409 129.771 176.784C130.303 176.149 131.063 175.832 132.053 175.832C132.575 175.832 133.028 175.921 133.411 176.098C133.803 176.266 134.125 176.513 134.377 176.84C134.629 177.157 134.815 177.545 134.937 178.002C135.058 178.45 135.119 178.949 135.119 179.5C135.119 180.685 134.853 181.595 134.321 182.23C133.798 182.855 133.042 183.168 132.053 183.168C131.53 183.168 131.073 183.084 130.681 182.916C130.298 182.739 129.981 182.491 129.729 182.174C129.477 181.847 129.29 181.46 129.169 181.012C129.047 180.555 128.987 180.051 128.987 179.5ZM130.149 179.5C130.149 179.855 130.181 180.195 130.247 180.522C130.321 180.849 130.433 181.133 130.583 181.376C130.732 181.619 130.928 181.815 131.171 181.964C131.413 182.113 131.707 182.188 132.053 182.188C133.322 182.197 133.957 181.301 133.957 179.5C133.957 179.136 133.919 178.791 133.845 178.464C133.779 178.137 133.672 177.853 133.523 177.61C133.373 177.367 133.177 177.176 132.935 177.036C132.692 176.887 132.398 176.812 132.053 176.812C130.783 176.803 130.149 177.699 130.149 179.5ZM136.885 176H137.655L137.865 176.84H137.921C138.135 176.513 138.411 176.266 138.747 176.098C139.092 175.921 139.484 175.832 139.923 175.832C140.856 175.832 141.551 176.107 142.009 176.658C142.466 177.209 142.695 178.109 142.695 179.36C142.695 179.948 142.615 180.48 142.457 180.956C142.307 181.423 142.093 181.819 141.813 182.146C141.533 182.473 141.192 182.725 140.791 182.902C140.399 183.079 139.96 183.168 139.475 183.168C139.129 183.168 138.854 183.145 138.649 183.098C138.453 183.061 138.238 182.991 138.005 182.888V185.8H136.885V176ZM139.713 176.812C139.237 176.812 138.859 176.938 138.579 177.19C138.308 177.433 138.117 177.806 138.005 178.31V181.782C138.173 181.913 138.364 182.015 138.579 182.09C138.793 182.155 139.078 182.188 139.433 182.188C140.077 182.188 140.585 181.95 140.959 181.474C141.341 180.989 141.533 180.279 141.533 179.346C141.533 178.963 141.5 178.618 141.435 178.31C141.369 177.993 141.262 177.727 141.113 177.512C140.973 177.288 140.786 177.115 140.553 176.994C140.329 176.873 140.049 176.812 139.713 176.812ZM144.347 176.518C144.702 176.303 145.112 176.145 145.579 176.042C146.055 175.939 146.55 175.888 147.063 175.888C147.548 175.888 147.936 175.953 148.225 176.084C148.524 176.215 148.748 176.387 148.897 176.602C149.056 176.807 149.158 177.036 149.205 177.288C149.261 177.54 149.289 177.792 149.289 178.044C149.289 178.604 149.275 179.15 149.247 179.682C149.219 180.214 149.205 180.718 149.205 181.194C149.205 181.539 149.219 181.866 149.247 182.174C149.275 182.482 149.326 182.767 149.401 183.028H148.575L148.281 182.048H148.211C148.127 182.179 148.02 182.309 147.889 182.44C147.768 182.561 147.618 182.673 147.441 182.776C147.264 182.869 147.058 182.949 146.825 183.014C146.592 183.079 146.326 183.112 146.027 183.112C145.728 183.112 145.448 183.065 145.187 182.972C144.935 182.879 144.716 182.748 144.529 182.58C144.342 182.403 144.193 182.193 144.081 181.95C143.978 181.707 143.927 181.432 143.927 181.124C143.927 180.713 144.011 180.373 144.179 180.102C144.347 179.822 144.58 179.603 144.879 179.444C145.187 179.276 145.551 179.159 145.971 179.094C146.4 179.019 146.872 178.982 147.385 178.982C147.516 178.982 147.642 178.982 147.763 178.982C147.894 178.982 148.024 178.991 148.155 179.01C148.183 178.73 148.197 178.478 148.197 178.254C148.197 177.741 148.094 177.381 147.889 177.176C147.684 176.971 147.31 176.868 146.769 176.868C146.61 176.868 146.438 176.882 146.251 176.91C146.074 176.929 145.887 176.961 145.691 177.008C145.504 177.045 145.322 177.097 145.145 177.162C144.977 177.218 144.828 177.283 144.697 177.358L144.347 176.518ZM146.335 182.132C146.596 182.132 146.83 182.099 147.035 182.034C147.24 181.959 147.418 181.871 147.567 181.768C147.716 181.656 147.838 181.535 147.931 181.404C148.034 181.273 148.108 181.147 148.155 181.026V179.864C148.024 179.855 147.889 179.85 147.749 179.85C147.618 179.841 147.488 179.836 147.357 179.836C147.068 179.836 146.783 179.855 146.503 179.892C146.232 179.92 145.99 179.981 145.775 180.074C145.57 180.158 145.402 180.279 145.271 180.438C145.15 180.587 145.089 180.779 145.089 181.012C145.089 181.339 145.206 181.609 145.439 181.824C145.672 182.029 145.971 182.132 146.335 182.132ZM157.69 184.778H156.934L156.724 183H151.404V176H152.524V182.02H155.562V176H156.682V182.02H157.69V184.778ZM163.442 178.856L163.484 177.988H163.442L162.868 178.884L159.718 183H159.074V176H160.194V180.27L160.152 181.096H160.208L160.754 180.228L163.904 176H164.562V183H163.442V178.856ZM170.203 180.102L169.125 180.27L167.277 183H165.919L167.599 180.606L168.159 180.088C167.673 180.013 167.258 179.817 166.913 179.5C166.577 179.183 166.409 178.753 166.409 178.212C166.409 177.792 166.479 177.433 166.619 177.134C166.768 176.835 166.978 176.588 167.249 176.392C167.519 176.196 167.841 176.056 168.215 175.972C168.588 175.879 169.008 175.832 169.475 175.832C169.82 175.832 170.142 175.855 170.441 175.902C170.739 175.949 171.033 176 171.323 176.056V183H170.203V180.102ZM170.203 176.952C170.081 176.905 169.946 176.873 169.797 176.854C169.647 176.826 169.517 176.812 169.405 176.812C168.807 176.812 168.35 176.919 168.033 177.134C167.725 177.349 167.571 177.689 167.571 178.156C167.571 178.576 167.734 178.903 168.061 179.136C168.397 179.36 168.835 179.472 169.377 179.472C169.386 179.472 169.4 179.472 169.419 179.472C169.437 179.472 169.475 179.472 169.531 179.472C169.587 179.472 169.666 179.472 169.769 179.472C169.871 179.463 170.016 179.453 170.203 179.444V176.952Z" fill="#6B6B6C"/>
</svg>
